<svg width="283" height="346" viewBox="0 0 283 346" fill="none" xmlns="http://www.w3.org/2000/svg">
<path d="M262.784 122.4L262.209 122.188C261.336 122.262 261.134 123.209 260.719 123.539C256.708 126.721 254.516 129.413 251.366 133.445C241.853 145.629 237.352 159.185 229.372 171.933C221.923 183.84 214.038 190.842 199.429 192.012C195.002 192.363 194.555 191.225 190.757 194.321C183.468 200.259 181.382 203.94 171.284 206.239C154.291 210.101 137.457 203.451 129.253 187.947C117.421 165.57 143.959 141.671 133.414 117.186C128.136 104.939 112.771 101.481 100.715 102.736C98.4375 102.97 96.7669 104.418 95.2665 104.705C94.245 104.896 90.5101 103.939 90.9038 106.354C91.1592 107.94 92.053 109.27 92.5106 110.632C92.8936 111.76 93.8407 116.144 94.8622 116.442C95.5219 116.633 96.3732 116.399 97.0861 116.516C101.587 117.229 104.3 116.878 107.95 120.198C111.909 123.794 111.802 128.125 109.334 132.562C106.312 137.978 100.289 141.309 94.0428 140.745C92.7659 140.628 91.1698 139.883 89.9887 140C88.0734 140.181 86.5198 142.235 84.8173 143.022C80.7206 144.927 74.1979 145.023 71.3461 141C68.005 136.297 71.7505 132.839 73.8042 128.689C74.2085 127.87 75.1342 126.061 75.23 125.252C75.3577 124.199 74.8363 123.475 74.7725 122.507C74.3681 116.708 76.3899 111.621 80.7738 107.844C82.221 106.599 85.6686 105.279 84.6045 102.981C81.6677 96.6285 73.3892 90.3824 67.0047 87.9244C55.3318 83.4234 41.6478 86.1793 34.4547 96.9903C26.5167 108.919 28.166 124.89 31.72 138.021C32.8692 142.256 33.6992 146.704 34.742 151.077C40.2752 174.37 46.0957 197.854 51.9055 221.189C53.225 226.477 54.4487 236.256 57.8111 240.3C60.0031 242.928 62.6846 243.428 65.9832 243.098L88.0627 236.341C95.1282 235.054 102.13 231.096 109.365 231.883C115.569 232.553 121.336 234.777 123.028 241.438C123.656 243.907 122.911 245.12 122.762 247.323C122.549 250.547 124.294 251.717 124.975 254.537C129.476 273.009 118.357 289.215 102.098 296.834C99.4164 298.09 95.9794 298.473 93.0213 298.739C81.3804 299.781 68.8562 296.313 61.9184 286.47C56.0128 278.106 53.8953 267.593 51.4905 257.846C50.4158 253.473 48.1174 244.705 45.0422 241.577C43.925 240.438 41.9245 238.512 40.7008 237.501C40.2858 237.161 39.126 236.107 38.7004 236.235C38.3386 236.341 35.7422 241.736 34.9655 242.726C33.4758 244.588 29.7196 247.408 27.4105 247.94C25.1015 248.472 23.782 248.206 21.9731 246.801C20.4728 245.631 19.7918 244.333 20.3664 242.428C20.5898 241.704 22.6009 238.225 23.1223 237.523C25.0802 234.905 29.0173 232.628 32.2946 232.394C33.9652 232.277 36.5509 233.734 36.2211 230.766C35.2528 222.04 25.2505 215.049 16.7804 218.167C11.1515 220.242 8.07632 224.211 5.75664 229.595C0.904463 240.874 0.393707 255.75 7.8635 266.018C17.2167 278.883 39.0941 279.479 52.246 287.215C61.546 292.695 67.7815 300.984 69.1329 311.923C69.8245 317.509 68.3561 326.745 65.3767 331.587C60.2159 339.972 53.076 346.611 42.4885 345.718C41.1371 345.601 37.3596 345.037 37.5086 343.281L37.9342 342.653C44.1165 344.27 48.6069 343.536 53.9379 340.291C60.2372 336.46 62.3654 332.48 64.9511 325.787C67.5368 319.094 67.6857 309.167 64.1956 302.559C59.9818 294.568 47.447 288.768 39.2643 285.64C33.231 283.331 26.9743 281.288 21.0155 278.617C4.89474 271.349 0 261.273 0 243.705C0 233.798 3.07517 222.381 11.2366 216.124C20.6962 208.867 33.7418 217.443 37.3171 227.052C37.9555 228.755 38.1683 231.84 38.9345 233.085C39.8815 234.628 43.4248 235.969 44.8933 237.331C52.2886 244.12 54.9913 264.039 58.1729 273.807C63.2592 289.428 76.9751 298.568 93.4895 296.355C105.801 294.706 117.133 283.416 121.773 272.318C123.539 268.083 123.869 261.762 122.624 257.336C122.241 255.963 121.347 254.867 121.23 253.367L120.453 253.25C120.017 254.867 118.761 256.708 117.75 258.08C110.132 268.413 94.0748 281.033 81.6783 270.456C78.784 267.987 76.1345 262.933 79.2309 259.623C81.54 257.155 85.2217 258.581 87.6158 260.177C89.4035 261.368 92.3722 264.763 94.9154 263.305C99.3206 260.773 98.5013 254.739 100.034 250.557C101.725 245.939 107.312 241.066 112.409 241.502C113.43 241.587 116.037 242.736 117.048 243.237C118.059 243.737 118.644 244.843 119.932 244.567C119.73 241.023 120.836 237.363 116.793 235.586C108.865 232.106 95.3091 237.193 87.2753 239.587C79.2416 241.981 70.0693 246.152 61.1098 245.077C60.4607 245.003 57.5557 243.173 56.896 242.651C52.0758 238.874 50.6393 228.531 49.1708 222.817C45.3615 207.899 41.999 192.746 38.4024 177.7C34.5186 161.484 29.5387 145.15 27.07 128.551C25.1015 115.282 26.5486 102.236 35.838 91.9573C48.0855 78.4116 70.6971 81.6783 82.4125 94.3833C83.4659 95.5219 87.6158 101.64 88.4564 101.874C90.1909 102.055 91.7444 101.268 93.2661 100.906C99.3206 99.4696 103.971 98.214 110.355 98.5864C124.06 99.3845 135.457 111.291 138.213 124.316C142.682 145.427 120.645 172.806 133.073 190.959C140.575 201.919 152.78 205.675 165.708 204.76C173.955 204.174 181.041 199.493 187.139 194.289C188.235 193.353 189.522 192.299 187.532 191.608C184.734 190.65 180.786 190.373 177.817 189.575C166.549 186.543 151.407 178.062 149.779 165.304C148.896 158.366 155.748 154.727 161.856 155.525C164.782 155.908 166.006 158.813 166.783 161.314C167.89 164.91 167.23 168.613 168.262 171.827C169.422 175.444 171.901 175.583 175.083 174.572C179.052 173.295 186.383 169.273 190.395 169.847C191.629 170.018 194.949 172.039 195.853 172.944C199.461 176.53 199.461 183.042 196.417 186.979C195.8 187.777 194.151 188.235 194.896 189.331C195.449 189.99 197.62 189.437 198.631 189.426C199.429 189.426 200.152 189.778 200.886 189.692C202.397 189.512 205.568 188.022 207.09 187.713C209.293 187.266 208.399 187.937 210.378 186.67C218.114 181.744 222.04 178.903 226.914 170.784C235.15 157.089 240.576 139.777 251.802 128.051C253.622 126.157 255.718 124.88 257.676 123.209C258.357 122.634 261.666 119.74 261.879 119.251C262.39 118.059 261.592 115.856 261.507 114.526C260.4 97.4692 272.775 82.3699 270.115 66.1003C269.136 60.1308 262.337 57.8324 257.165 59.918C256.069 60.3543 253.409 61.5992 253.633 62.908C253.771 63.7487 255.537 66.76 256.005 67.9624C257.74 72.3889 258.474 77.273 257.559 81.9975C256.984 84.9663 255.229 87.6478 254.356 90.5527C255.952 94.9047 258.485 97.9267 254.995 102.151C252.441 105.237 249.174 105.407 245.854 103.375C244.599 102.609 242.322 99.8314 241.417 99.6399C240.396 99.4164 239.012 100.023 237.916 100.108C234.256 100.385 229.776 98.6183 227.446 95.7666C225.36 93.2235 225.264 91.255 227.573 88.7437C228.712 87.5094 233.319 84.9982 234.979 84.413C236.395 83.9128 237.789 83.9873 239.023 83.6043C240.864 83.019 241.226 80.3163 241.747 78.6776C243.162 74.283 244.577 70.5907 247.014 66.5897C248.046 64.8979 249.568 63.2911 250.259 61.4928C248.663 59.5988 246.705 57.9175 244.492 56.7683C238.235 53.5229 231.957 53.2463 226.935 58.7582C224.626 61.2906 223.839 63.2166 223.307 66.611C223.147 67.6325 223.402 68.7179 223.072 69.6968C222.785 70.5374 222.04 70.5374 221.944 71.144C221.87 71.6654 222.242 72.2932 222.221 72.9103C222.189 73.9638 221.796 75.7514 221.647 76.9432C220.114 89.3503 220.827 102.034 220.444 114.526C219.976 129.753 218.582 145.576 207.92 157.387C203.057 162.771 194.821 167.666 188.405 161.856C181.031 155.185 187.894 139.532 188.277 131.094C188.341 129.572 187.479 126.167 185.468 126.486C182.052 127.008 179.552 132.53 175.338 131.03C172.923 130.179 173.082 128.636 173.721 126.497C174.678 123.273 177.413 119.304 178.147 116.378C178.52 114.931 178.498 113.696 176.913 113.111C170.199 110.653 162.846 116.963 155.759 115.899C153.737 115.601 151.354 113.122 151.088 111.132C150.503 106.769 153.535 101.364 155.568 97.6288C166.708 77.1134 179.328 57.46 190.778 37.1362C194.64 30.2835 202.089 19.0256 197.162 11.4601C189.405 -0.457546 170.252 1.14921 159.366 7.50172C157.717 8.45939 156.132 10.0449 154.642 10.9387C153.801 11.4494 151.662 11.9496 151.535 13.2158C151.471 13.8436 153.408 15.2269 153.971 15.876C154.461 16.4293 154.748 17.1422 155.238 17.6636C159.036 21.7071 163.814 24.1545 162.708 30.7411C162.25 33.4438 159.409 36.6041 156.515 36.5616C151.939 36.4977 147.438 30.6666 146.299 26.6018C145.342 23.1862 145.342 21.324 146.363 17.9722C146.661 16.9933 147.928 15.195 147.427 14.2586C146.597 12.705 140.639 9.62987 138.83 8.7999C127.817 3.76683 107.716 0.468198 96.1071 3.94772C95.3197 4.18182 91.1379 5.9801 90.808 5.66088C90.4356 4.22438 92.8191 3.09646 93.9471 2.55378C99.5441 -0.0106351 112.536 -0.0638389 118.793 0.361791C123.135 0.659731 134.158 2.90493 137.638 5.24589C138.042 5.52255 138.17 6.08651 138.628 6.29932C139.277 6.59726 140.043 6.39509 140.798 6.68239C142.384 7.27827 145.033 9.90653 146.64 10.7897C146.97 10.9706 148.832 11.5984 149.162 11.5984C150.322 11.5984 154.855 7.4166 156.302 6.46957C161.484 3.06454 168.56 1.12792 174.689 0.35115C181.467 -0.500109 186.415 0.0532095 192.342 3.60722C199.524 7.91671 202.717 13.5989 200.397 21.9838C198.077 30.3687 194.247 37.0404 190.161 44.4144C181.063 60.8544 171.401 77.0177 162.005 93.3299C159.962 96.8626 156.664 101.811 155.11 105.322C154.78 106.067 153.652 109.291 153.62 109.972C153.439 113.303 156.61 114.271 159.377 113.93C160.59 113.781 162.516 113.558 163.644 113.356C164.868 113.132 166.496 111.951 167.592 111.685C171.252 110.791 173.785 110.291 177.53 111.334C179.828 111.972 181.361 112.281 180.669 115.058C179.882 118.197 175.21 125.55 175.679 128.221C175.891 129.455 177.115 129.53 178.126 129.104C178.935 128.764 181.744 125.252 182.861 124.39C183.606 123.816 184.702 123.135 185.67 123.145C187.83 123.188 190.427 126.891 190.639 128.849C191.129 133.35 189.277 138.872 188.628 143.426C187.798 149.332 186.415 155.983 190.895 160.75C192.831 162.803 196.279 163.016 198.801 162.027C210.144 157.536 216.443 138.085 217.656 127.04C219.614 109.163 217.06 89.8929 219.263 71.9846C219.848 67.2495 222.221 59.5243 225.733 56.2469C232.372 50.054 242.407 49.6816 248.706 56.5023C249.43 57.2791 251.068 59.9499 252.036 60.0882C253.239 60.2585 253.665 59.2263 254.526 58.7582C259.985 55.7681 264.933 55.4702 269.211 60.5139C278.723 71.7399 267.359 90.1164 264.476 102.14C263.486 106.28 263.06 113.462 263.912 117.623C263.986 117.974 264.156 118.665 264.561 118.761C264.72 118.804 267.178 118.091 267.859 118.027C274.19 117.506 278.862 120.315 280.16 126.646C280.649 129.072 280 133.19 278.17 134.967C276.34 136.744 274.85 136.595 272.584 135.755C266.657 133.541 265.008 127.753 262.826 122.422L262.784 122.4ZM149.715 16.2058C147.364 18.2063 147.449 21.8454 147.779 24.7078C148.194 28.315 151.545 34.1142 155.525 34.5718C157.376 34.7846 159.749 33.9972 160.005 31.8903C160.622 26.7083 156.387 21.4411 152.716 18.2382C152.184 17.77 150.279 16.0675 149.705 16.2165L149.715 16.2058ZM249.408 66.5472C247.184 69.8777 244.95 73.5169 243.769 77.3688C243.577 77.986 242.428 82.604 242.481 82.8807C242.619 83.6468 243.854 83.5191 244.418 83.7213C246.312 84.4236 248.419 85.3174 250.068 86.4986C250.866 87.0732 251.888 89.0098 252.866 87.7329C256.42 83.051 256.41 74.3894 254.548 69.0158C254.303 68.3029 252.196 64.568 251.696 64.4403C250.621 64.1637 250.291 66.196 249.419 66.5472H249.408ZM237.789 86.1793C235.469 86.3283 230.893 88.4565 229.191 90.0845C226.882 92.3084 227.871 94.2344 230.053 96.0539C233.17 98.6609 237.459 99.2887 240.864 96.9158C240.034 94.5536 240.417 91.7551 240.13 89.2864C240.034 88.4884 239.842 86.573 239.108 86.2219C238.672 85.9452 238.235 86.1368 237.778 86.1687L237.789 86.1793ZM249.738 92.6489C250.142 92.2233 250.749 91.4784 250.557 90.8825C249.238 89.6482 247.748 87.6903 245.854 87.3924C245.343 87.3179 242.077 87.1902 241.949 87.4137C241.641 89.446 242.204 91.3933 242.428 93.3831C242.545 94.5004 241.843 97.799 243.896 96.8946C244.492 96.6285 249.27 93.149 249.749 92.6489H249.738ZM252.058 93.2873C251.377 93.4257 248.163 95.9582 247.408 96.5753C246.854 97.0329 246.546 97.7671 246.099 98.065C245.684 98.3523 244.854 98.3417 244.588 98.8524C243.832 100.321 247.461 102.183 248.6 102.513C250.845 103.162 255.101 101.725 255.207 98.9801C255.271 97.4479 254.133 92.8511 252.058 93.2767V93.2873ZM86.4347 107.067C85.4451 107.163 81.3378 110.94 80.5185 111.877C77.6029 115.186 76.2728 118.219 77.0815 122.72C77.1347 123.007 77.1879 123.23 77.4858 123.347L90.7336 116.729C91.0102 116.218 90.8081 115.75 90.6804 115.239C90.3824 114.069 87.9776 108.344 87.286 107.652C87.0625 107.429 86.7965 107.025 86.4241 107.056L86.4347 107.067ZM276.787 122.688C273.807 119.634 268.572 119.442 264.869 121.23C264.358 123.315 268.093 130.349 269.721 131.913C270.903 133.052 274.786 135.425 276.361 134.701C276.51 134.627 277.776 133.371 277.893 133.179C279.543 130.615 278.936 124.89 276.776 122.677L276.787 122.688ZM95.873 120.357C94.3408 120.815 95.0111 124.028 94.9473 125.029C94.7345 128.604 93.83 132.605 92.1701 135.797C91.8828 136.34 91.3188 136.712 91.1273 137.319C91.0528 138.181 94.2024 138.5 94.8941 138.532C100.874 138.776 106.854 134.754 108.578 128.976C109.302 126.54 109.302 122.986 106.684 121.698C106.067 121.4 102.641 120.432 101.928 120.336C101.034 120.219 96.5647 120.155 95.873 120.368V120.357ZM89.7653 121.379C88.0202 121.741 84.796 123.539 83.2212 124.539C82.4551 125.029 81.8166 125.816 81.1356 126.284C79.5927 127.338 77.9753 126.721 79.1671 129.328C79.9439 131.03 81.7421 133.318 83.2212 134.456C83.6575 134.797 86.605 136.595 86.9135 136.648C88.1798 136.872 89.7546 134.946 90.3079 133.924C91.6274 131.477 92.8085 125.05 91.8721 122.486C91.4891 121.432 90.8613 121.155 89.7653 121.379ZM76.209 129.242C74.6873 130.966 71.1333 135.946 71.559 138.17C71.9846 140.394 73.5275 141.447 75.6556 142.001C77.9753 142.597 82.3061 141.841 84.2108 140.319C84.7109 139.926 85.6473 138.755 85.3813 138.159C85.1897 137.744 82.1997 135.701 81.54 135.095C79.4437 133.211 78.2626 130.966 76.2196 129.232L76.209 129.242ZM157.898 158.909C156.578 159.09 153.408 159.983 152.641 161.048C150.896 163.463 152.226 167.975 153.397 170.422C156.121 176.125 163.442 180.126 168.592 183.297C171.699 185.213 174.529 185.138 177.881 186.011C181.233 186.883 185.468 188.799 188.99 189.192C194.428 189.809 197.247 181.584 195.013 177.551C193.608 175.019 188.086 174.327 185.521 175.051C180.392 176.498 177.871 178.562 171.859 177.998C165.847 177.434 166.485 167.655 165.506 163.42C165.293 162.505 164.687 160.952 164.048 160.281C162.846 159.005 159.59 158.675 157.898 158.909ZM188.841 171.859C187.181 171.295 185.394 172.188 183.797 172.806C183.478 172.933 183.053 172.955 182.978 173.391L188.841 171.869V171.859ZM35.9551 235.692C35.689 235.277 32.4755 235.831 31.8371 235.98C29.0918 236.618 25.6974 238.353 23.8885 240.534C22.3243 242.417 21.1431 244.694 24.3247 245.673C28.6449 247.003 34.8591 240.853 35.8699 236.948C35.9763 236.533 36.104 236.129 35.9657 235.703L35.9551 235.692ZM112.994 244.641C110.153 244.939 107.769 246.131 105.78 248.153C101.31 252.696 102.768 262.858 97.9799 266.125C93.8407 268.955 88.765 264.635 85.1578 262.656C83.8171 261.911 82.7211 260.996 81.2846 261.932C78.2413 263.922 81.5187 267.923 83.4553 269.466C85.2217 270.871 89.9887 272.02 92.2765 271.892C101.747 271.36 115.378 259.974 118.495 251.153C119.155 249.281 119.421 248.706 118.165 247.003C116.91 245.301 115.143 244.407 113.005 244.641H112.994Z" fill="#85312B"></path>
<path d="M209.09 255.728C211.804 258.154 216.198 261.995 219.869 262.421C224.338 262.932 229.914 260.314 233.138 257.367C233.883 257.42 233.809 258.058 233.638 258.633C233.436 259.303 230.914 262.847 230.318 263.485C229.871 263.964 227.733 265.752 227.211 265.986C221.774 268.433 213.442 264.411 209.26 260.793C207.686 259.431 203.919 255.068 202.12 254.643C200.609 254.281 199.29 258.878 199.29 260.027C199.29 266.028 204.227 271.753 203.121 278.893C202.801 280.936 199.396 283.192 197.46 282.809C196.555 282.628 193.278 280.564 192.448 279.904C190.671 278.499 186.734 273.519 184.84 273.211C183.648 273.019 183.329 274.434 183.105 275.445C182.041 280.127 183.637 282.255 184.659 286.416C185.585 290.172 186.457 293.981 187.394 297.716C188.053 300.355 189.064 302.026 187.085 304.675C184.914 307.58 183.286 303.643 182.542 301.802C181.69 293.705 178.86 285.118 178.179 277.073C177.987 274.86 177.902 273.083 179.807 271.625C182.988 269.178 185.478 270.678 188.436 272.434C190.969 273.934 193.533 276.446 195.874 277.754C196.513 278.116 199.056 279.35 199.077 278.137C199.077 277.648 198.428 276.978 198.322 276.318C197.8 272.977 197.375 271.891 196.449 268.752C195.64 266.018 193.916 260.868 193.948 258.218C193.991 255.228 197.311 250.12 200.461 249.908C204.291 249.652 206.664 253.515 209.111 255.707L209.09 255.728Z" fill="#85312B"></path>
<path d="M155.664 299.452C154.046 299.728 153.716 298.452 152.844 297.813C150.088 295.823 145.576 294.291 142.682 296.802C136.372 302.272 135.829 312.189 136.819 319.967C137.5 325.362 142.086 337.173 148.651 329.831C155.217 322.489 155.536 311.157 157.77 302.208C160.207 297.643 162.506 305.666 164.08 307.507C166.645 310.497 170.646 309.901 173.785 308.273C175.03 307.635 177.051 305.421 177.743 307.613C178.169 308.965 177.839 309.326 176.956 310.167C174.7 312.338 168.358 315.392 165.251 314.998C163.389 314.764 160.218 311.327 159.622 311.444C159.069 311.55 159.25 313.572 159.111 314.253C158.813 315.679 157.568 317.105 157.26 318.265C156.887 319.627 156.919 321.329 156.451 322.808C155.387 326.128 151.003 334.396 148.034 336.077C143.342 338.737 139.139 336.865 136.489 332.544C131.424 324.298 130.115 306.145 135.712 297.983C139.202 292.908 147.119 289.705 152.482 293.833C153.184 294.376 156.228 298.888 155.674 299.441L155.664 299.452Z" fill="#85312B"></path>
<path d="M255.622 206.878C259.421 206.091 264.262 210.315 264.816 213.901C265.433 217.891 263.294 224.722 261.57 228.404C261.304 228.968 259.687 230.394 260.953 230.788C261.166 230.852 264.933 230.096 265.38 229.915C269.146 228.404 275.637 221.2 277.999 217.774C278.712 216.742 281.032 212.039 281.564 211.645C281.947 211.368 282.32 211.283 282.745 211.517C283.118 211.783 282.99 212.358 282.926 212.752C282.277 217.146 279.915 219.477 277.829 222.977C276.925 224.488 276.669 225.882 275.318 227.361C270.093 233.086 266.55 234.022 259.144 234.916C255.218 235.395 250.163 242.258 246.099 238.47C243.587 236.129 249.429 235.885 250.749 235.204C251.185 234.98 252.855 233.65 252.855 233.246C249.355 227.298 248.173 220.583 250.376 213.911C251.015 211.996 253.483 207.314 255.59 206.878H255.622ZM259.953 209.964C258.463 208.474 256.675 209.517 255.696 211.028C255.015 212.081 253.643 216.848 253.43 218.2C252.962 221.179 253.302 224.18 254.632 226.893C254.888 227.404 256.165 229.5 256.601 229.543L257.367 229.277C257.857 227.67 259.155 226.563 259.751 225.031C260.942 221.967 262.4 212.4 259.953 209.964Z" fill="#85312B"></path>
<path d="M231.906 236.223C232.64 236.106 233.332 236.106 233.864 236.691C236.428 240.426 239.078 244.15 241.365 248.077C242.461 249.96 244.632 253.259 244.217 255.429C244.025 256.44 242.972 256.323 242.291 255.823C241.887 255.514 239.684 253.056 239.237 252.503C237.652 250.588 235.619 247.353 234.321 245.172C232.895 242.788 231.778 240.213 230.48 237.766C230.224 236.808 231.097 236.35 231.906 236.223Z" fill="#85312B"></path>
<path d="M226.139 229.999C225.181 229.414 224.958 225.232 226.958 224.956C227.086 224.977 228.693 226.552 228.778 226.733C229.342 227.946 227.639 230.914 226.139 229.999Z" fill="#85312B"></path>
</svg>
