<svg width="2930" height="525" fill="none" xmlns="http://www.w3.org/2000/svg"><path d="M146.357 178.215c14.862 10.786 25.566 25.61 32.093 44.463h-12.788c-5.437-14.865-14.595-26.787-27.465-35.766-12.875-8.973-28.832-13.457-47.865-13.457-14.508 0-27.603 3.496-39.3 10.468-11.693 6.982-20.943 17-27.742 30.048-6.798 13.058-10.197 28.379-10.197 45.962 0 17.404 3.399 32.633 10.197 45.691 6.799 13.048 16.05 23.065 27.742 30.048 11.697 6.977 24.792 10.468 39.3 10.468 19.033 0 34.99-4.49 47.865-13.463 12.87-8.973 22.028-20.803 27.465-35.489h12.788c-6.527 18.858-17.231 33.631-32.093 44.329-14.871 10.699-33.546 16.043-56.025 16.043-17.405 0-32.953-4.121-46.642-12.372-13.694-8.247-24.342-19.805-31.954-34.671C4.119 295.647.31 278.791.31 259.933c0-18.853 3.809-35.714 11.426-50.58 7.612-14.865 18.26-26.469 31.954-34.813 13.69-8.334 29.237-12.505 46.642-12.505 22.479 0 41.154 5.395 56.025 16.18zM251.74 174.271v80.499h77.516v9.788H251.74v80.765h85.671v10.335h-97.906V163.936h97.906v10.335H251.74zM405.32 264.011h40.524c34.084 0 51.126-14.778 51.126-44.324 0-14.317-4.034-25.333-12.097-33.042-8.073-7.704-21.081-11.559-39.029-11.559H405.32v88.925zm91.379 91.643l-55.477-81.579H405.32v81.579h-12.24V163.937h53.578c21.214 0 36.941 4.991 47.184 14.958 10.244 9.971 15.368 23.48 15.368 40.516 0 16.324-4.674 29.141-14.006 38.483-9.343 9.337-22.893 14.64-40.657 15.91l56.296 81.85h-14.144zM677.826 295.829l-41.61-111.77-41.886 111.77h83.496zm3.808 10.064h-90.836l-18.767 49.765h-13.597l70.979-186.557h13.601l70.436 186.557h-13.325l-18.491-49.765zM902.983 355.656h-12.24L778.693 184.88v170.776h-12.235V164.21h12.235l112.05 170.781V164.21h12.24v191.446zM986.363 355.655h-12.241V163.938h12.241v191.717zM1265.39 332.136c-3.81 7.525-9.79 13.642-17.95 18.357-8.16 4.714-18.4 7.069-30.73 7.069-11.79 0-22.3-2.268-31.55-6.798s-16.59-10.606-22.03-18.223c-5.44-7.612-8.61-15.863-9.52-24.745h12.79c.9 5.805 3.21 11.789 6.93 17.947 3.71 6.163 9.2 11.333 16.45 15.5 7.26 4.177 16.14 6.255 26.66 6.255 13.42 0 23.75-3.716 31-11.149 7.25-7.432 10.88-16.677 10.88-27.739 0-9.608-2.27-17.312-6.8-23.111-4.54-5.805-10.12-10.243-16.73-13.33-6.62-3.076-15.63-6.342-27.06-9.787-12.15-3.624-21.84-7.115-29.1-10.473-7.25-3.353-13.37-8.472-18.35-15.362-5-6.89-7.48-15.95-7.48-27.191 0-13.78 4.8-25.113 14.41-34 9.61-8.876 22.94-13.319 39.98-13.319 17.22 0 30.87 4.305 40.93 12.915 10.06 8.615 16.27 18.899 18.63 30.861h-13.05c-1.82-8.517-6.62-16.262-14.42-23.249-7.79-6.972-18.5-10.468-32.09-10.468-12.51 0-22.53 3.219-30.05 9.654-7.53 6.439-11.29 15.546-11.29 27.329 0 9.066 2.17 16.36 6.53 21.894 4.35 5.528 9.74 9.787 16.18 12.776 6.44 2.995 15.18 6.122 26.24 9.383 12.33 3.629 22.21 7.213 29.65 10.745 7.43 3.532 13.73 8.84 18.91 15.904 5.16 7.074 7.74 16.595 7.74 28.563 0 8.333-1.9 16.268-5.71 23.792zM1432.67 163.939v10.335h-55.21v181.382h-12.51V174.274h-54.93v-10.335h122.65zM1496.31 163.939v117.749c0 22.298 4.9 38.617 14.69 48.946 9.79 10.335 23.12 15.505 39.98 15.505 16.68 0 29.78-5.17 39.29-15.505 9.53-10.329 14.29-26.648 14.29-48.946V163.939h12.51v117.749c0 25.563-5.95 44.6-17.82 57.111-11.87 12.51-27.96 18.761-48.27 18.761-20.49 0-36.76-6.251-48.81-18.761-12.06-12.511-18.1-31.548-18.1-57.111V163.939h12.24zM1806.97 322.208c15.05-14.865 22.58-35.714 22.58-62.547 0-26.828-7.57-47.677-22.71-62.547-15.14-14.865-37.31-22.298-66.5-22.298h-41.06v169.69h41.06c29.38 0 51.58-7.432 66.63-22.298zm8.98 8.16c-17.41 16.861-42.42 25.287-75.06 25.287h-53.85V163.938h53.85c32.64 0 57.65 8.431 75.06 25.288 17.4 16.861 26.11 40.341 26.11 70.435 0 30.278-8.71 53.845-26.11 70.707zM1917.53 355.655h-12.24V163.938h12.24v191.717zM2032.02 184.059c-12.05 7.074-21.58 17.138-28.56 30.186-6.98 13.053-10.46 28.282-10.46 45.686 0 17.409 3.48 32.632 10.46 45.691 6.98 13.053 16.51 23.116 28.56 30.186 12.05 7.069 25.61 10.601 40.66 10.601 14.87 0 28.38-3.532 40.52-10.601 12.15-7.07 21.71-17.133 28.7-30.186 6.97-13.059 10.47-28.282 10.47-45.691 0-17.404-3.5-32.633-10.47-45.686-6.99-13.048-16.55-23.112-28.7-30.186-12.14-7.069-25.65-10.601-40.52-10.601-15.05 0-28.61 3.532-40.66 10.601zm88.12-9.383c14.05 8.252 25.02 19.81 32.91 34.675 7.89 14.871 11.83 31.732 11.83 50.58 0 18.863-3.94 35.719-11.83 50.584-7.89 14.865-18.86 26.47-32.91 34.808-14.05 8.339-29.88 12.506-47.46 12.506-17.59 0-33.41-4.167-47.46-12.506-14.05-8.338-25.07-19.943-33.04-34.808-7.98-14.865-11.96-31.721-11.96-50.584 0-18.848 3.98-35.709 11.96-50.58 7.97-14.865 18.99-26.423 33.04-34.675 14.05-8.241 29.87-12.372 47.46-12.372 17.58 0 33.41 4.131 47.46 12.372zM2509.08 524.895c-67.23 0-134.46-25.592-185.64-76.766-102.36-102.351-102.36-268.891 0-371.242C2373.03 27.307 2438.96 0 2509.08 0c68.76 0 133.49 26.257 182.73 74.03 1.61 1.556 1.61 4.15.03 5.733-1.55 1.55-4.05 1.544-5.62.018-99.45-96.438-258.81-95.51-357.11 2.778-99.23 99.224-99.23 260.675 0 359.899 98.3 98.288 257.66 99.216 357.11 2.777 1.57-1.526 4.07-1.534 5.62.018 1.58 1.581 1.58 4.177-.03 5.737-50.8 49.267-116.77 73.905-182.73 73.905z" fill="#2B2A26"/><path d="M2594.49 262.188l14.36-3.612c4.61-1.031 10.28-2.104 16.75-3.428 6.5-1.067 13.83-2.3 21.87-3.352 8.05-.889 16.76-2.05 26.03-2.56 9.25-.832 19.04-1.029 29.16-1.337 5.06-.148 10.21.052 15.41.062l7.86.085c2.63.073 5.28.265 7.93.389 5.31.306 10.66.529 16.02.904l16.1 1.583c5.39.418 10.71 1.322 16.04 2.076 5.31.852 10.65 1.376 15.85 2.49 10.43 2.057 20.73 3.907 30.5 6.604 4.89 1.298 9.77 2.319 14.42 3.778 4.64 1.453 9.19 2.876 13.62 4.259 2.22.695 4.4 1.376 6.55 2.047 2.11.796 4.19 1.578 6.23 2.348 4.08 1.549 8.03 3.047 11.81 4.485 1.89.738 3.77 1.373 5.54 2.155 1.76.803 3.49 1.586 5.17 2.35 3.36 1.529 6.54 2.977 9.54 4.34 2.97 1.412 5.85 2.524 8.33 3.928 2.51 1.353 4.81 2.596 6.89 3.718 8.31 4.49 13.07 7.055 13.07 7.055a.88.88 0 01.35 1.203.884.884 0 01-1.2.36l-.05-.029-13.03-6.964c-2.07-1.109-4.37-2.335-6.86-3.672-2.47-1.386-5.35-2.482-8.31-3.873-2.98-1.345-6.16-2.775-9.51-4.281-1.67-.754-3.39-1.526-5.15-2.316-1.76-.772-3.64-1.396-5.51-2.125-3.78-1.414-7.71-2.888-11.77-4.412-2.04-.759-4.11-1.529-6.21-2.308-2.14-.664-4.31-1.332-6.52-2.014-4.41-1.357-8.94-2.754-13.58-4.181-4.63-1.436-9.49-2.431-14.36-3.703-9.73-2.645-19.98-4.444-30.37-6.452-5.17-1.085-10.49-1.585-15.78-2.412-5.3-.73-10.6-1.609-15.96-2.003-5.35-.502-10.7-1.007-16.03-1.51-5.34-.352-10.66-.552-15.94-.832-2.64-.116-5.27-.295-7.89-.357-2.62-.018-5.23-.037-7.82-.052-5.18.01-10.3-.169-15.33-.003-10.07.35-19.8.583-29 1.446-9.21.544-17.86 1.736-25.86 2.648-7.98 1.075-15.26 2.332-21.7 3.415-6.38 1.337-11.96 2.41-16.54 3.451l-14.34 3.669c-.85.218-1.71-.29-1.93-1.135a1.586 1.586 0 011.14-1.925h.01z" fill="#2B2A26"/><path d="M2572.51 285.847c13.42 13.551 17.51 27.866 13 45.547-3.03 12.113-9.09 21.578-20.45 32.936-17.41 17.036-48.08 32.556-74.96 37.857-8.71 1.894-21.96 2.653-28.02 1.513-2.27-.375-6.81-1.891-9.84-3.404-4.54-2.273-6.44-3.786-8.71-7.193-2.65-4.166-3.03-4.923-3.03-12.872 0-7.573.38-9.467 2.65-15.144 7.95-17.792 26.51-37.478 51.11-53.758 18.18-12.115 65.13-34.452 69.29-32.936 1.09.363 4.97 3.521 8.96 7.454zm-139.2-70.301c8.33-24.228 40.89-55.27 69.29-65.873 5.67-2.272 20.62-4.785 30.29 0 5.67 3.029 10.84 8.584 11.73 14.766 4.04 28.162-13.39 48.949-26.92 57.087-3.39 1.783-7.28 3.384-11.64 4.693-4.41 1.225-9.25 2.179-14.49 2.803-5.25.552-10.86.803-16.77.777-13.24-.132-27.86-1.741-43.37-4.093-.04-3.003.58-6.364 1.88-10.16zm138.95 57.168h.38c9.64-3.729 18.09-6.405 24.86-8.027v-3.223c-6.04 1.329-13.53 3.459-21.83 6.327l-12.12 4.166-4.54-2.272c-15.91-8.709-37.86-14.388-79.51-20.443-14.39-2.272-26.88-4.545-31.42-6.058-4.97-1.614-8.78-3.604-11.5-6.044 13.24 2.147 25.97 3.671 37.98 4.075 6.29.174 12.37.047 18.19-.435 5.83-.557 11.38-1.503 16.55-2.827 5.17-1.412 9.87-3.379 14.19-5.355 4.97-2.283 26.16-17.427 31.73-37.114 7.08-25.013-1.51-46.189-18.93-54.897-4.92-2.27-7.19-2.651-14.01-3.026-9.46-.381-17.04 1.135-27.25 5.298-34.46 14.388-70.43 56.03-70.43 81.396 0 .134.01.259.01.391-10.15-1.651-20.65-3.573-31.4-5.599-29.92-5.664-61.92-12.118-94.28-16.632a715.86 715.86 0 00-48.48-5.249 531.518 531.518 0 00-47.22-1.399c-30.67.427-59.2 4.006-83.12 9.325-11.95 2.666-22.82 5.532-32.28 8.607-4.76 1.433-9.12 3.07-13.2 4.425-4.03 1.521-7.72 2.918-11.06 4.18-6.6 2.707-11.77 4.863-15.23 6.495l-5.34 2.41.6 1.313s1.87-.792 5.37-2.28c3.48-1.544 8.68-3.575 15.3-6.117 3.34-1.179 7.05-2.482 11.08-3.904 4.09-1.252 8.46-2.783 13.22-4.097 9.46-2.84 20.3-5.438 32.21-7.812 23.82-4.731 52.13-7.627 82.47-7.361 30.34.151 62.62 3.467 94.58 8.735 31.98 5.202 63.64 12.338 93.5 18.699 12.27 2.596 24.24 5.057 35.86 7.146.81 1.448 1.81 2.85 3.09 4.246 7.57 8.708 15.9 11.356 50.73 15.142 29.53 3.029 48.09 7.195 65.12 14.009 9.09 3.407 11.36 4.542 11.36 5.301 0 .379-1.89 1.513-4.16 2.27-23.48 9.462-43.54 19.686-60.58 31.042-49.6 33.318-69.66 72.69-47.7 93.511 4.54 4.545 8.32 6.436 15.52 8.33 6.81 1.892 20.82 1.513 30.66-.381 26.13-5.301 54.53-20.064 73.46-38.237 31.04-29.905 35.21-64.736 10.6-88.588-2.65-2.648-5.68-5.299-6.82-6.055-1.51-1.135-1.13-1.513 3.79-3.407z" fill="#2B2A26"/></svg>