<svg viewBox="0 0 306.42 78.14" xmlns="http://www.w3.org/2000/svg" id="Artwork_Layer_Insert_your_Design_here_"><defs><style>.cls-1{fill:#e4003a;}</style></defs><path d="M2.79,66.65c0-1,.16-1.84.47-2.52.31-.68.79-1.47,1.42-2.36.74-1,1.33-1.97,1.77-2.92.45-.95.8-2.15,1.07-3.63.21-1.31.32-2.84.32-4.57s-.11-3.18-.32-4.49c-.21-1.26-.53-2.31-.95-3.15-.42-.84-1-1.84-1.73-3-.68-1-1.2-1.86-1.54-2.6-.34-.74-.51-1.58-.51-2.52,0-1.68.84-3.28,2.52-4.81,1.68-1.53,3.93-2.76,6.74-3.7,2.81-.95,5.82-1.42,9.02-1.42,2.68,0,4.65.42,5.91,1.26,1.26.84,1.89,2.29,1.89,4.34,0,1-.14,1.94-.43,2.84-.29.89-.67,1.88-1.14,2.96-.47,1.08-.81,1.85-1.03,2.32-.05.05-.08.16-.08.31,0,.21.13.41.39.59.26.18.55.27.87.27.58,0,.95-.24,1.1-.71,1.26-4.05,3.39-7.42,6.39-10.13,3-2.71,7.02-4.06,12.06-4.06,3.05,0,5.8.57,8.24,1.69,2.44,1.13,4.35,2.78,5.71,4.97,1.37,2.18,1.94,4.74,1.73,7.69-.16,2.26-.24,4.54-.24,6.86,0,2,.08,3.99.24,5.99.21,2.68.6,4.69,1.18,6.03.58,1.34,1.31,2.53,2.21,3.59.53.63.92,1.21,1.18,1.73s.39,1.21.39,2.05c0,1.68-.72,3.21-2.17,4.57-1.44,1.37-3.4,2.46-5.87,3.27-2.47.81-5.2,1.22-8.2,1.22-4.1,0-7.24-.91-9.42-2.72-2.18-1.81-3.17-4.48-2.95-8,.31-4.52.47-9.43.47-14.74,0-3.94-.27-6.73-.83-8.36-.55-1.63-1.59-2.44-3.12-2.44-1.63,0-2.82.84-3.58,2.52-.76,1.68-1.15,4.28-1.15,7.8,0,2.36.11,4.55.32,6.54.16,1.42.43,2.63.83,3.63.39,1,.9,2.1,1.54,3.31.53,1,.92,1.83,1.18,2.48s.39,1.35.39,2.09c0,2.36-1.34,4.27-4.02,5.71-2.68,1.44-6.65,2.17-11.9,2.17s-9.37-.74-12.18-2.21c-2.81-1.47-4.22-3.39-4.22-5.75Z" class="cls-1"></path><path d="M132.52,66.65c0-1,.16-1.84.47-2.52.31-.68.79-1.47,1.42-2.36.74-1,1.33-1.97,1.77-2.92.45-.95.8-2.15,1.07-3.63.21-1.31.32-2.84.32-4.57s-.11-3.18-.32-4.49c-.21-1.26-.53-2.31-.95-3.15-.42-.84-1-1.84-1.73-3-.68-1-1.2-1.86-1.54-2.6-.34-.74-.51-1.58-.51-2.52,0-1.68.84-3.28,2.52-4.81,1.68-1.53,3.93-2.76,6.74-3.7,2.81-.95,5.82-1.42,9.02-1.42,2.68,0,4.65.42,5.91,1.26,1.26.84,1.89,2.29,1.89,4.34,0,1-.14,1.94-.43,2.84-.29.89-.67,1.88-1.14,2.96-.47,1.08-.81,1.85-1.03,2.32-.05.05-.08.16-.08.31,0,.21.13.41.39.59.26.18.55.27.87.27.58,0,.95-.24,1.1-.71,1.26-4.05,3.39-7.42,6.39-10.13,3-2.71,7.02-4.06,12.06-4.06,3.05,0,5.8.57,8.24,1.69,2.44,1.13,4.35,2.78,5.71,4.97s1.94,4.74,1.73,7.69c-.16,2.26-.24,4.54-.24,6.86,0,2,.08,3.99.24,5.99.21,2.68.6,4.69,1.18,6.03.58,1.34,1.31,2.53,2.21,3.59.53.63.92,1.21,1.18,1.73.26.53.39,1.21.39,2.05,0,1.68-.72,3.21-2.17,4.57-1.44,1.37-3.4,2.46-5.87,3.27-2.47.81-5.2,1.22-8.2,1.22-4.1,0-7.24-.91-9.42-2.72-2.18-1.81-3.17-4.48-2.95-8,.31-4.52.47-9.43.47-14.74,0-3.94-.27-6.73-.83-8.36-.55-1.63-1.59-2.44-3.12-2.44-1.63,0-2.82.84-3.58,2.52-.76,1.68-1.15,4.28-1.15,7.8,0,2.36.11,4.55.32,6.54.16,1.42.43,2.63.83,3.63.39,1,.9,2.1,1.54,3.31.53,1,.92,1.83,1.18,2.48.26.66.39,1.35.39,2.09,0,2.36-1.34,4.27-4.02,5.71-2.68,1.44-6.65,2.17-11.9,2.17s-9.37-.74-12.18-2.21c-2.81-1.47-4.22-3.39-4.22-5.75Z" class="cls-1"></path><path d="M200.85,66.65c0-1,.15-1.84.47-2.52.32-.68.79-1.47,1.42-2.36.73-1,1.32-1.97,1.77-2.92.45-.95.8-2.15,1.06-3.63.21-1.31.32-2.84.32-4.57s-.1-3.18-.32-4.49c-.21-1.26-.53-2.31-.95-3.15-.42-.84-1-1.84-1.73-3-.68-1-1.19-1.86-1.54-2.6-.34-.74-.51-1.58-.51-2.52,0-1.68.84-3.28,2.52-4.81,1.68-1.53,3.93-2.76,6.74-3.7,2.81-.95,5.82-1.42,9.03-1.42,2.68,0,4.65.42,5.91,1.26,1.26.84,1.89,2.29,1.89,4.34,0,1-.15,1.94-.44,2.84-.29.89-.67,1.88-1.14,2.96-.47,1.08-.81,1.85-1.02,2.32-.05.05-.08.16-.08.31,0,.21.13.41.39.59.26.18.55.27.86.27.58,0,.95-.24,1.1-.71,1.26-4.05,3.39-7.42,6.39-10.13,2.99-2.71,7.01-4.06,12.06-4.06,3.05,0,5.79.57,8.24,1.69,2.44,1.13,4.35,2.78,5.71,4.97,1.37,2.18,1.95,4.74,1.73,7.69-.16,2.26-.24,4.54-.24,6.86,0,2,.08,3.99.24,5.99.21,2.68.61,4.69,1.18,6.03.58,1.34,1.32,2.53,2.21,3.59.53.63.92,1.21,1.18,1.73s.39,1.21.39,2.05c0,1.68-.72,3.21-2.17,4.57-1.44,1.37-3.4,2.46-5.87,3.27-2.47.81-5.2,1.22-8.2,1.22-4.1,0-7.24-.91-9.42-2.72-2.18-1.81-3.17-4.48-2.96-8,.32-4.52.47-9.43.47-14.74,0-3.94-.28-6.73-.83-8.36-.55-1.63-1.59-2.44-3.11-2.44-1.63,0-2.83.84-3.59,2.52-.76,1.68-1.14,4.28-1.14,7.8,0,2.36.1,4.55.32,6.54.15,1.42.43,2.63.83,3.63.39,1,.91,2.1,1.54,3.31.53,1,.92,1.83,1.18,2.48s.39,1.35.39,2.09c0,2.36-1.34,4.27-4.02,5.71-2.68,1.44-6.64,2.17-11.9,2.17s-9.37-.74-12.18-2.21c-2.81-1.47-4.22-3.39-4.22-5.75Z" class="cls-1"></path><path d="M269.18,66.73c0-.89.15-1.66.47-2.29.32-.63.81-1.5,1.5-2.6.73-1.16,1.34-2.21,1.81-3.15.47-.95.79-2.1.95-3.47.21-1.31.32-2.84.32-4.57s-.1-3.18-.32-4.49c-.15-1.1-.46-2.14-.9-3.11-.45-.97-1.07-2.09-1.85-3.35-.68-1.16-1.18-2.09-1.5-2.8-.32-.71-.47-1.41-.47-2.09,0-1.68.81-3.28,2.44-4.81,1.63-1.52,3.84-2.75,6.62-3.67,2.79-.92,5.83-1.38,9.14-1.38,3.58,0,6.2.68,7.88,2.05,1.68,1.37,2.44,3.52,2.29,6.46-.21,4.84-.32,8.46-.32,10.88s.1,6.04.32,10.88c.05,1.37.31,2.55.79,3.55.47,1,1.13,2.1,1.97,3.31.68,1,1.18,1.83,1.5,2.48s.47,1.38.47,2.17c0,2.31-1.47,4.2-4.41,5.67-2.94,1.47-7.04,2.21-12.29,2.21s-9.24-.74-12.1-2.21c-2.86-1.47-4.29-3.36-4.29-5.67ZM272.41,12.5c0-3.31,1.17-5.94,3.51-7.88,2.34-1.94,5.74-2.92,10.21-2.92,3.89,0,6.88.76,8.98,2.29,2.1,1.52,3.15,3.84,3.15,6.94,0,3.31-1.17,5.94-3.51,7.88-2.34,1.94-5.74,2.92-10.21,2.92-3.89,0-6.88-.76-8.98-2.29-2.1-1.52-3.15-3.84-3.15-6.94Z" class="cls-1"></path><path d="M124.6,36.62c-2.34-3.73-5.66-6.61-9.97-8.63s-9.38-3.03-15.21-3.03-10.92,1.01-15.25,3.03c-4.34,2.02-7.67,4.9-10.01,8.63-2.34,3.73-3.51,8.12-3.51,13.16s1.17,9.43,3.51,13.16c2.34,3.73,5.67,6.61,10.01,8.63,4.34,2.02,9.44,3.03,15.33,3.03s10.9-1.01,15.21-3.03c4.31-2.02,7.62-4.9,9.93-8.63,2.31-3.73,3.47-8.12,3.47-13.16s-1.17-9.43-3.51-13.16ZM93.38,57.16c-1.69-2.04-2.54-5-2.54-8.89,0-3.38.66-5.99,1.99-7.82,1.33-1.83,3.34-2.74,6.04-2.74,2.88,0,5.17,1.01,6.86,3.05,1.69,2.04,2.54,5,2.54,8.89,0,3.38-.66,5.99-1.99,7.82-1.33,1.83-3.34,2.74-6.04,2.74-2.88,0-5.17-1.01-6.86-3.05Z" class="cls-1"></path></svg>