<svg version="1.1" id="Layer_1" xmlns="http://www.w3.org/2000/svg" xmlns:xlink="http://www.w3.org/1999/xlink" x="0px" y="0px"
	 width="100%" viewBox="0 0 800 800" enable-background="new 0 0 800 800" xml:space="preserve">
<path fill="#000000" opacity="1.000000" stroke="none" 
	d="
M283.437286,534.583130 
	C294.667419,543.029968 307.345001,545.924622 320.684448,546.692749 
	C350.273499,548.396667 378.095093,540.849304 405.294739,530.283752 
	C425.375763,522.483337 443.875732,511.380341 463.291382,502.188049 
	C479.448059,494.538696 496.351990,489.875427 514.424316,490.748810 
	C524.198364,491.221191 533.460693,493.731110 542.039429,498.537476 
	C544.033508,499.654663 544.013123,499.691040 545.609253,502.308868 
	C544.175964,503.905579 542.624146,503.254303 541.151978,502.458527 
	C520.146606,491.103760 498.812225,493.279114 477.427704,501.059052 
	C460.147339,507.345856 444.604309,517.284729 427.965393,524.950256 
	C404.606445,535.711670 380.806335,545.130371 355.415100,549.784546 
	C333.628418,553.778015 311.690704,555.073242 290.279297,548.045959 
	C269.776855,541.317017 254.897598,528.344727 249.231186,506.676361 
	C244.805908,489.754150 250.012955,474.327820 257.730377,459.669739 
	C270.446381,435.517670 290.173248,418.028687 313.075256,403.962708 
	C340.417969,387.169342 370.051300,376.887360 402.073608,373.561676 
	C415.076691,372.211212 427.966278,372.281158 440.842377,374.546692 
	C441.630493,374.685364 442.464264,374.564697 444.188049,374.564697 
	C435.571960,361.244934 438.439880,349.276978 448.070068,337.483856 
	C441.731995,335.167969 436.605499,332.032349 429.729919,334.589539 
	C404.133698,344.109406 377.602661,349.176880 350.307190,350.409668 
	C344.321381,350.680023 338.369019,351.420380 332.362823,350.813446 
	C329.773590,350.551788 328.038300,352.399536 326.223541,353.780609 
	C317.650391,360.304993 310.425110,368.058350 305.030182,377.446320 
	C304.541138,378.297302 303.864777,379.050018 303.207397,379.787781 
	C303.057922,379.955536 302.625275,379.870972 301.693878,379.968201 
	C302.966003,373.753754 306.464630,368.916931 309.893372,364.189575 
	C313.280518,359.519592 317.246979,355.269806 321.178040,350.574432 
	C317.952972,348.828918 314.586609,349.000641 311.450073,348.348480 
	C291.907898,344.285339 273.642212,337.521240 259.060333,323.228912 
	C250.118820,314.464966 244.452774,304.269958 246.675949,291.110809 
	C248.396927,280.924042 254.735168,273.978088 263.158234,269.004608 
	C279.153442,259.560059 296.528900,256.348999 315.017303,258.356262 
	C327.660156,259.728912 339.930817,262.564789 351.920349,266.635406 
	C355.551971,267.868378 357.969055,267.240997 360.808258,264.632202 
	C383.546051,243.739349 403.764404,220.423569 425.123749,198.206818 
	C443.547424,179.043564 459.074280,157.572510 474.936584,136.360825 
	C475.693726,135.348358 476.218353,134.162018 477.332672,132.215775 
	C454.762543,139.424591 431.765564,138.221466 409.756683,143.274780 
	C379.119843,150.309128 357.661377,167.582703 348.822357,198.670090 
	C348.505219,199.785522 348.141083,200.897491 347.671448,201.954468 
	C347.498535,202.343658 346.956848,202.569000 346.417297,203.002502 
	C343.701599,201.105438 344.716187,198.623489 345.282013,196.339783 
	C351.298431,172.057159 366.119629,155.214874 388.591553,144.613403 
	C404.801300,136.966232 422.075958,133.854141 439.633698,131.745667 
	C457.788177,129.565506 475.665283,126.734573 489.816071,113.488708 
	C492.674500,110.813065 495.469879,112.612503 497.863647,114.537170 
	C500.469238,116.632156 499.276611,118.884514 497.832764,121.148468 
	C490.000610,133.429367 480.200806,144.127762 470.684662,155.056366 
	C469.387939,156.545502 468.126526,158.065369 467.420044,160.367264 
	C469.248077,159.144577 471.085449,157.935593 472.902710,156.697113 
	C489.590149,145.324066 506.514740,134.402130 526.004211,128.252121 
	C534.569458,125.549309 543.277893,124.458092 552.066772,126.644981 
	C562.436523,129.225235 567.613770,137.755875 565.599731,148.249863 
	C562.630554,163.720993 553.233276,174.798035 541.271851,184.229370 
	C523.930908,197.902405 504.293335,206.515518 482.839386,211.248398 
	C481.236389,211.602036 479.642181,211.995667 477.080963,212.596649 
	C483.705719,213.332916 489.219849,214.462585 494.475494,216.600464 
	C513.221741,224.225998 521.215698,240.374878 515.633667,259.811646 
	C510.365112,278.157043 498.431396,291.878937 484.303650,303.990356 
	C482.660339,305.399170 480.922943,306.697876 479.242157,308.063690 
	C478.994385,308.265045 478.819397,308.555908 478.132812,309.376617 
	C491.787903,310.536346 504.820374,309.908997 517.761353,306.823975 
	C530.576477,303.769012 542.342529,298.154755 553.825989,291.628082 
	C554.806274,294.152405 553.252136,294.641846 552.251648,295.299866 
	C535.607727,306.246216 517.352478,312.331940 497.433411,313.293243 
	C492.957794,313.509216 488.490997,313.937988 483.987823,313.418671 
	C476.503540,312.555481 469.793457,313.882080 463.385040,318.595123 
	C457.566559,322.874329 450.707367,325.738434 444.189941,329.290161 
	C450.011597,333.589874 451.363159,333.456604 457.074188,329.753082 
	C486.302856,310.798889 516.794312,309.158813 548.227783,323.654266 
	C555.960999,327.220367 562.107422,332.771790 565.704102,340.792633 
	C569.856323,350.052307 567.438110,359.270538 558.931335,364.845367 
	C548.681335,371.562622 537.321411,371.760315 525.731628,369.822876 
	C513.754883,367.820831 502.884674,362.809357 492.175720,357.346039 
	C483.423492,352.880981 474.535400,348.679504 465.829926,344.127106 
	C462.589874,342.432770 460.818756,343.266449 458.865356,346.080780 
	C447.124268,362.996490 455.258545,378.252838 468.256836,383.473663 
	C471.608826,384.819977 474.595581,387.113922 477.668213,389.099304 
	C478.959290,389.933563 480.053558,391.240295 479.181671,392.883636 
	C478.291046,394.562347 476.698456,394.142944 475.204681,393.665924 
	C469.948303,391.987396 464.670715,390.081482 460.178833,386.990082 
	C450.632935,380.420349 439.643005,378.390259 428.816010,378.576843 
	C365.217712,379.673004 314.339417,405.300964 278.722778,458.853790 
	C271.238953,470.106354 266.946503,482.886749 266.534058,496.452454 
	C266.076508,511.500366 271.167694,524.554321 283.437286,534.583130 
M503.816315,254.292038 
	C509.901611,233.873138 501.573242,220.761475 480.585999,217.256607 
	C471.952850,215.814850 463.329285,216.288284 454.684937,216.398575 
	C452.026855,216.432480 447.970032,218.227310 447.476715,214.619278 
	C446.993835,211.087631 451.519348,211.451309 454.026947,210.803879 
	C479.185852,204.307999 503.271637,195.410522 524.484131,179.935257 
	C536.405151,171.238373 547.544312,161.770432 554.386780,148.295761 
	C556.806458,143.530823 558.365601,138.370209 554.590393,133.715576 
	C550.987244,129.273117 545.758911,128.922440 540.408875,129.749023 
	C530.894714,131.218994 522.205505,134.973434 513.785950,139.414688 
	C482.547546,155.892639 456.728607,179.070938 433.344116,205.125427 
	C416.201508,224.225357 398.990570,243.218948 379.236633,259.716400 
	C374.978485,263.272552 370.799744,266.923859 366.080444,270.962677 
	C374.918732,274.622955 382.898376,277.891602 390.849731,281.227661 
	C411.254059,289.788483 431.387421,299.047699 452.802429,304.982544 
	C455.309357,305.677277 457.638397,306.136414 459.946960,304.504883 
	C478.401520,291.462250 494.836792,276.640778 503.816315,254.292038 
M449.485992,309.131805 
	C443.626526,307.261414 437.727234,305.506500 431.914886,303.499634 
	C411.903381,296.590210 392.624725,287.822906 373.229614,279.439026 
	C363.884521,275.399414 357.140259,276.122467 349.574921,282.827606 
	C341.996246,289.544525 333.016693,294.586212 323.817169,298.982849 
	C321.445984,300.116089 318.751953,301.547974 315.877411,298.210297 
	C328.671997,290.844818 340.511566,282.785919 351.102478,272.912262 
	C350.417664,272.261444 350.217712,271.920380 349.934296,271.823608 
	C332.091553,265.731476 313.754700,262.592621 294.948242,264.504700 
	C280.766510,265.946533 268.351562,271.788910 258.855835,282.857697 
	C252.879395,289.824188 250.808929,297.561523 254.174255,306.473755 
	C257.823059,316.136658 264.656433,322.980347 273.175262,328.300903 
	C289.490540,338.490906 307.749298,341.606140 326.548370,342.693695 
	C329.685699,342.875183 332.306671,341.992218 334.967133,340.304016 
	C357.676361,325.894287 382.415833,320.041534 409.253784,322.436096 
	C414.632324,322.915985 420.127686,325.580994 425.473297,323.355255 
	C433.771667,319.900208 441.879303,315.966949 449.477570,311.095123 
	C450.065552,310.718170 451.244415,310.346924 449.485992,309.131805 
M496.648682,354.774139 
	C505.684052,359.823212 514.891479,364.588135 525.208435,366.303558 
	C535.865479,368.075592 546.259888,367.487274 554.842651,359.751068 
	C563.718994,351.750275 563.620117,340.290466 554.801697,332.258698 
	C551.565369,329.311096 547.891296,326.993225 543.847412,325.394470 
	C516.702332,314.662781 491.723907,319.675690 468.352966,335.973419 
	C467.427734,336.618622 466.342590,337.215027 466.075562,339.227722 
	C476.120972,343.829346 486.134827,348.987091 496.648682,354.774139 
M370.821777,339.179565 
	C383.504608,336.964478 396.020447,334.113892 408.056000,329.371979 
	C387.023376,328.261383 366.982727,332.100647 346.674896,341.534088 
	C355.427460,341.912781 362.661743,340.136963 370.821777,339.179565 
z"/>
<path fill="#000000" opacity="1.000000" stroke="none" 
	d="
M271.231934,604.272156 
	C271.234802,607.233337 271.192230,609.730896 271.258575,612.225586 
	C271.353333,615.788818 270.186127,619.989502 276.656738,620.533875 
	C276.270111,620.926941 275.883484,621.319946 275.496857,621.713013 
	C270.004669,621.713013 264.512482,621.713013 259.020294,621.713013 
	C265.139954,619.172791 263.626373,613.936951 263.654572,609.349731 
	C263.704712,601.195496 263.584442,593.039429 263.702545,584.886597 
	C263.766357,580.481140 264.073883,576.127441 258.791534,573.657593 
	C264.329315,573.657593 269.867096,573.657593 275.404907,573.657593 
	C271.860535,576.191772 270.768311,579.347900 271.160034,583.432068 
	C271.523895,587.225647 271.212463,591.080994 271.499451,594.886414 
	C271.620636,596.493164 273.280029,596.626587 274.661621,596.627686 
	C279.154816,596.631287 283.649200,596.564392 288.140808,596.647339 
	C290.965088,596.699463 292.001587,595.314941 291.945404,592.666565 
	C291.885437,589.838867 291.854156,587.005493 291.962585,584.180481 
	C292.119720,580.085693 292.125061,576.127747 287.151093,574.103516 
	C292.967163,572.742554 298.558716,573.429565 304.697327,573.793701 
	C297.842499,576.782532 299.409149,582.473877 299.362152,587.536987 
	C299.291077,595.191650 299.395538,602.847900 299.323181,610.502563 
	C299.282043,614.854736 298.814453,619.305115 304.479706,621.367371 
	C298.760590,622.717957 293.311279,622.285706 286.467896,622.083191 
	C295.319611,616.547119 290.967316,608.909912 291.801300,602.361206 
	C292.095154,600.053772 290.447449,599.179749 288.302551,599.175659 
	C283.809937,599.167236 279.316925,599.179260 274.824799,599.124023 
	C271.479340,599.082886 271.128082,601.248230 271.231934,604.272156 
z"/>
<path fill="#000000" opacity="1.000000" stroke="none" 
	d="
M483.030334,573.358154 
	C488.584137,572.832581 493.686584,573.056335 498.851898,573.413452 
	C516.522766,574.635254 520.749146,590.174377 518.807922,601.500366 
	C516.354858,615.812012 508.245026,622.388245 493.614410,622.320374 
	C487.924072,622.294006 482.185028,622.782837 476.153320,621.455444 
	C481.529358,619.059326 480.772156,614.586365 480.755035,610.352356 
	C480.718781,601.373230 480.637787,592.392090 480.783875,583.415222 
	C480.846954,579.538879 480.745636,576.007568 475.817596,574.709351 
	C478.078796,572.118469 480.523071,573.767944 483.030334,573.358154 
M491.196869,619.670898 
	C503.827545,620.750854 509.829681,615.616272 510.815979,603.054749 
	C511.142578,598.895386 511.073975,594.761719 510.692352,590.626221 
	C509.840027,581.389893 504.008881,575.875854 494.743225,575.378113 
	C490.507172,575.150452 488.196747,576.577942 488.266022,581.294678 
	C488.426941,592.247742 488.313721,603.204895 488.309387,614.160400 
	C488.308594,616.182983 488.300171,618.204468 491.196869,619.670898 
z"/>
<path fill="#000000" opacity="1.000000" stroke="none" 
	d="
M337.594849,572.969666 
	C347.869568,576.252014 352.070190,583.847656 353.062836,593.420166 
	C354.104858,603.468872 352.205383,612.907715 343.567596,619.352905 
	C330.787231,628.889099 312.848480,621.641907 309.653717,606.064148 
	C308.451691,600.203003 308.504547,594.471985 310.134491,588.798462 
	C313.506195,577.062378 323.655365,569.945374 337.594849,572.969666 
M320.167480,613.215088 
	C326.345978,623.171326 336.762512,623.722595 341.649628,614.013062 
	C346.684509,604.009827 347.093140,593.511230 342.359070,583.193237 
	C340.101349,578.272400 336.394806,574.394409 330.565521,574.546753 
	C324.722046,574.699524 321.194824,578.699646 319.350220,583.857178 
	C315.929779,593.420715 315.810455,603.052063 320.167480,613.215088 
z"/>
<path fill="#000000" opacity="1.000000" stroke="none" 
	d="
M464.894073,622.328979 
	C454.877472,622.327881 445.346832,622.327881 434.877289,622.327881 
	C436.811249,619.311646 440.075897,619.386169 440.312378,616.683289 
	C440.500275,614.535583 440.603058,612.374146 440.612335,610.218262 
	C440.648895,601.724731 440.653534,593.231018 440.631195,584.737427 
	C440.614166,578.258423 440.358154,577.790527 435.515594,574.404968 
	C436.402008,572.327026 438.282501,573.003113 439.774689,572.995972 
	C448.259125,572.955444 456.746002,573.130493 465.227844,572.985291 
	C468.913544,572.922180 470.687500,573.924255 469.573242,577.887634 
	C468.861237,580.420166 469.957672,583.170227 468.819977,585.733582 
	C466.484283,585.582886 466.856262,583.726074 466.630005,582.413147 
	C465.847626,577.872864 463.152496,575.833130 458.631317,575.965820 
	C456.801086,576.019531 454.966736,576.034180 453.136841,575.980042 
	C449.578674,575.874756 447.942413,577.553345 448.025299,581.113708 
	C448.110565,584.775696 447.991882,588.442566 448.089600,592.103943 
	C448.135620,593.828003 447.601898,596.101074 450.215759,596.483826 
	C452.706940,596.848633 454.910187,595.984619 456.118103,593.664856 
	C457.009888,591.952271 457.539795,590.051331 459.026886,588.287109 
	C460.538055,594.557922 460.182495,600.828491 460.160553,607.496277 
	C457.007507,606.736938 457.492767,604.429321 457.003326,602.953247 
	C455.940155,599.746887 453.661804,599.032043 450.767059,599.283264 
	C447.494781,599.567200 448.178131,602.179688 448.059265,604.227173 
	C447.962952,605.887085 448.034973,607.556946 448.037201,609.222351 
	C448.051147,619.634155 451.763214,622.326416 462.092590,619.437866 
	C465.404358,618.511719 466.826477,616.004333 467.604492,612.946411 
	C468.028931,611.278137 467.700104,609.230713 470.242584,608.263123 
	C471.874786,612.320679 471.455566,616.488159 470.876282,620.427612 
	C470.450470,623.323608 467.353210,621.982300 464.894073,622.328979 
z"/>
<path fill="#000000" opacity="1.000000" stroke="none" 
	d="
M379.833618,596.097168 
	C381.824341,597.642151 383.673828,598.830627 385.174347,600.361206 
	C389.275879,604.544983 390.452026,609.518921 388.337433,615.039490 
	C386.335358,620.266357 382.103607,622.686218 376.799042,623.233093 
	C373.677734,623.554932 370.365387,623.888062 367.497589,622.252808 
	C364.860046,620.748901 362.457550,620.335083 359.444458,623.257812 
	C358.707275,616.813965 359.441193,611.483704 359.845428,605.955444 
	C362.426819,606.558594 362.057922,608.113342 362.352722,609.328735 
	C362.939789,611.749329 363.477692,614.197327 364.879822,616.319885 
	C367.373169,620.094177 371.018372,621.222534 375.297821,620.681274 
	C378.357971,620.294250 380.737030,618.696594 381.497681,615.667725 
	C382.486389,611.730713 381.931091,607.895813 378.472717,605.276611 
	C374.500702,602.268433 370.279266,599.591492 366.201752,596.720093 
	C362.828064,594.344238 360.232574,591.367310 359.716187,587.090271 
	C358.389679,576.103516 368.231812,569.058716 378.753204,573.637329 
	C381.373108,574.777527 383.521057,575.896179 386.079254,572.270874 
	C387.799011,577.943787 386.207947,582.488586 386.130249,587.084717 
	C383.199921,587.066345 383.957886,585.021973 383.490479,583.808289 
	C381.963623,579.843445 380.328552,575.976624 375.435669,575.204163 
	C371.725769,574.618469 368.439850,575.192627 366.446747,578.877258 
	C364.440765,582.585693 365.773254,585.695312 368.414276,588.340759 
	C371.618103,591.550049 375.836304,593.359497 379.833618,596.097168 
z"/>
<path fill="#000000" opacity="1.000000" stroke="none" 
	d="
M418.192780,575.950439 
	C415.514160,577.285461 416.336761,579.534119 416.319427,581.392883 
	C416.229309,591.052124 416.269653,600.712646 416.273712,610.372681 
	C416.276764,617.713318 416.282898,617.713318 423.279205,621.686401 
	C415.726990,621.686401 409.285217,621.686401 402.843475,621.686401 
	C410.492401,619.537476 408.677490,613.455383 408.698944,608.239563 
	C408.734589,599.578979 408.793610,590.916626 408.648224,582.258301 
	C408.610809,580.030273 409.945282,576.693726 406.195862,576.163757 
	C402.447113,575.633789 398.929077,576.153748 397.036957,580.392578 
	C395.973541,582.774780 397.058594,585.806641 394.727509,587.791992 
	C393.108765,585.692993 392.067841,575.869812 393.262878,574.260742 
	C394.171875,573.036804 395.574249,573.036743 396.890106,573.032593 
	C407.368500,572.999512 417.847137,573.026489 428.325409,572.978088 
	C431.035797,572.965576 432.497406,574.080078 432.107849,576.869568 
	C431.599884,580.506470 432.991364,584.393311 430.311676,589.132263 
	C428.201996,582.236572 427.739716,574.618469 418.192780,575.950439 
z"/>
</svg>