<svg xmlns="http://www.w3.org/2000/svg" xmlns:xlink="http://www.w3.org/1999/xlink" width="500" zoomAndPan="magnify" viewBox="0 0 375 374.999991" height="500" preserveAspectRatio="xMidYMid meet" version="1.0"><defs><g/><clipPath id="172845d668"><rect x="0" width="200" y="0" height="343"/></clipPath><clipPath id="86d59537a6"><rect x="0" width="171" y="0" height="56"/></clipPath></defs><g transform="matrix(1, 0, 0, 1, 95, 0)"><g clip-path="url(#172845d668)"><g fill="#4c2d0c" fill-opacity="1"><g transform="translate(0.827176, 162.71934)"><g><path d="M 56.53125 9.21875 C 50.351562 9.21875 44.316406 8.628906 38.421875 7.453125 C 32.523438 6.273438 26.738281 4.316406 21.0625 1.578125 C 19.226562 0.722656 17.351562 -0.316406 15.4375 -1.546875 C 13.53125 -2.785156 11.695312 -4.171875 9.9375 -5.703125 C 8.1875 -7.242188 6.609375 -8.925781 5.203125 -10.75 C 3.804688 -12.582031 2.703125 -14.535156 1.890625 -16.609375 C 1.078125 -18.691406 0.671875 -20.878906 0.671875 -23.171875 C 0.671875 -25.523438 1.070312 -27.664062 1.875 -29.59375 C 2.675781 -31.519531 3.769531 -33.25 5.15625 -34.78125 C 6.539062 -36.320312 8.128906 -37.6875 9.921875 -38.875 C 11.722656 -40.0625 13.617188 -41.082031 15.609375 -41.9375 C 17.609375 -42.800781 19.601562 -43.523438 21.59375 -44.109375 C 23.976562 -44.796875 26.359375 -45.289062 28.734375 -45.59375 C 31.117188 -45.90625 33.503906 -46.0625 35.890625 -46.0625 C 39.429688 -46.0625 42.953125 -45.773438 46.453125 -45.203125 C 49.953125 -44.640625 53.429688 -43.882812 56.890625 -42.9375 C 60.359375 -42 63.769531 -40.960938 67.125 -39.828125 C 70.550781 -42.898438 73.945312 -46.113281 77.3125 -49.46875 C 80.675781 -52.820312 83.992188 -56.210938 87.265625 -59.640625 C 90.535156 -63.078125 93.71875 -66.460938 96.8125 -69.796875 C 99.914062 -73.128906 102.90625 -76.335938 105.78125 -79.421875 C 108.664062 -82.515625 111.394531 -85.378906 113.96875 -88.015625 C 117.625 -92.390625 121.082031 -96.660156 124.34375 -100.828125 C 127.613281 -104.992188 130.632812 -108.929688 133.40625 -112.640625 C 136.175781 -116.347656 138.613281 -119.726562 140.71875 -122.78125 C 137.863281 -121.664062 134.882812 -120.789062 131.78125 -120.15625 C 128.6875 -119.519531 125.507812 -119.019531 122.25 -118.65625 C 119 -118.300781 115.722656 -117.957031 112.421875 -117.625 C 109.128906 -117.289062 105.878906 -116.863281 102.671875 -116.34375 C 97.546875 -115.476562 92.738281 -114.101562 88.25 -112.21875 C 83.769531 -110.34375 79.71875 -107.898438 76.09375 -104.890625 C 72.46875 -101.890625 69.375 -98.285156 66.8125 -94.078125 C 64.25 -89.867188 62.332031 -85.007812 61.0625 -79.5 C 61 -79.28125 60.882812 -79.171875 60.71875 -79.171875 C 60.53125 -79.171875 60.316406 -79.332031 60.078125 -79.65625 C 59.835938 -79.988281 59.71875 -80.40625 59.71875 -80.90625 L 59.8125 -81.453125 C 60.945312 -86.679688 62.660156 -91.296875 64.953125 -95.296875 C 67.253906 -99.296875 70.050781 -102.773438 73.34375 -105.734375 C 76.644531 -108.703125 80.347656 -111.222656 84.453125 -113.296875 C 88.566406 -115.378906 93.003906 -117.097656 97.765625 -118.453125 C 100.535156 -119.253906 103.378906 -119.882812 106.296875 -120.34375 C 109.222656 -120.800781 112.1875 -121.203125 115.1875 -121.546875 C 118.195312 -121.890625 121.164062 -122.296875 124.09375 -122.765625 C 127.03125 -123.242188 129.882812 -123.890625 132.65625 -124.703125 C 135.425781 -125.523438 138.054688 -126.617188 140.546875 -127.984375 C 143.046875 -129.359375 145.347656 -131.140625 147.453125 -133.328125 C 147.671875 -133.546875 147.972656 -133.65625 148.359375 -133.65625 C 148.890625 -133.65625 149.472656 -133.492188 150.109375 -133.171875 C 150.742188 -132.859375 151.289062 -132.472656 151.75 -132.015625 C 152.207031 -131.554688 152.4375 -131.109375 152.4375 -130.671875 C 152.4375 -130.503906 152.394531 -130.347656 152.3125 -130.203125 C 150.84375 -127.796875 149.097656 -125.269531 147.078125 -122.625 C 145.054688 -119.976562 142.875 -117.304688 140.53125 -114.609375 C 138.1875 -111.910156 135.796875 -109.238281 133.359375 -106.59375 C 130.929688 -103.945312 128.566406 -101.394531 126.265625 -98.9375 C 128.671875 -100.84375 131.28125 -102.820312 134.09375 -104.875 C 136.90625 -106.925781 139.835938 -108.945312 142.890625 -110.9375 C 145.953125 -112.925781 149.046875 -114.804688 152.171875 -116.578125 C 155.304688 -118.359375 158.410156 -119.925781 161.484375 -121.28125 C 164.554688 -122.632812 167.519531 -123.695312 170.375 -124.46875 C 173.226562 -125.25 175.882812 -125.640625 178.34375 -125.640625 C 182.25 -125.640625 185.296875 -124.945312 187.484375 -123.5625 C 189.671875 -122.175781 191.15625 -120.085938 191.9375 -117.296875 C 192.15625 -116.492188 192.265625 -115.632812 192.265625 -114.71875 C 192.265625 -112.832031 191.84375 -110.6875 191 -108.28125 C 190.15625 -105.875 188.90625 -103.429688 187.25 -100.953125 C 185.601562 -98.472656 183.578125 -96.15625 181.171875 -94 C 177.097656 -90.363281 173 -87.320312 168.875 -84.875 C 164.75 -82.425781 160.664062 -80.429688 156.625 -78.890625 C 152.582031 -77.359375 148.628906 -76.132812 144.765625 -75.21875 C 140.898438 -74.300781 137.179688 -73.566406 133.609375 -73.015625 L 136.359375 -73.0625 C 138.128906 -73.0625 139.960938 -72.957031 141.859375 -72.75 C 143.753906 -72.539062 145.664062 -72.148438 147.59375 -71.578125 C 149.519531 -71.015625 151.390625 -70.1875 153.203125 -69.09375 C 155.015625 -68 156.722656 -66.550781 158.328125 -64.75 C 160.015625 -62.863281 161.222656 -60.867188 161.953125 -58.765625 C 162.691406 -56.660156 163.0625 -54.503906 163.0625 -52.296875 C 163.0625 -49.691406 162.644531 -47.070312 161.8125 -44.4375 C 160.988281 -41.8125 159.882812 -39.265625 158.5 -36.796875 C 157.113281 -34.335938 155.585938 -32.023438 153.921875 -29.859375 C 152.265625 -27.703125 150.617188 -25.789062 148.984375 -24.125 C 147.378906 -22.46875 145.675781 -20.882812 143.875 -19.375 C 142.070312 -17.863281 140.226562 -16.414062 138.34375 -15.03125 C 139.726562 -14.894531 141.113281 -14.785156 142.5 -14.703125 C 143.882812 -14.617188 145.253906 -14.578125 146.609375 -14.578125 C 153.234375 -14.578125 159.734375 -15.460938 166.109375 -17.234375 C 172.492188 -19.003906 178.648438 -21.71875 184.578125 -25.375 C 184.859375 -25.570312 185.125 -25.671875 185.375 -25.671875 C 185.5625 -25.671875 185.65625 -25.597656 185.65625 -25.453125 C 185.65625 -25.296875 185.503906 -25.101562 185.203125 -24.875 C 179.273438 -20.75 173.035156 -17.757812 166.484375 -15.90625 C 159.941406 -14.050781 153.082031 -13.125 145.90625 -13.125 C 142.78125 -13.125 139.597656 -13.289062 136.359375 -13.625 C 130.929688 -9.882812 125.128906 -6.632812 118.953125 -3.875 C 112.773438 -1.125 106.398438 1.164062 99.828125 3 C 93.253906 4.84375 86.644531 6.265625 80 7.265625 C 73.351562 8.265625 66.859375 8.890625 60.515625 9.140625 Z M 127.46875 -16.953125 C 129.90625 -18.523438 132.300781 -20.238281 134.65625 -22.09375 C 136.5625 -23.613281 138.546875 -25.335938 140.609375 -27.265625 C 142.671875 -29.191406 144.664062 -31.269531 146.59375 -33.5 C 148.519531 -35.726562 150.25 -38.066406 151.78125 -40.515625 C 153.320312 -42.960938 154.546875 -45.476562 155.453125 -48.0625 C 156.367188 -50.65625 156.828125 -53.269531 156.828125 -55.90625 C 156.828125 -58.425781 156.359375 -60.59375 155.421875 -62.40625 C 154.484375 -64.21875 153.195312 -65.734375 151.5625 -66.953125 C 149.925781 -68.171875 148.054688 -69.140625 145.953125 -69.859375 C 143.847656 -70.578125 141.617188 -71.085938 139.265625 -71.390625 C 136.910156 -71.703125 134.570312 -71.859375 132.25 -71.859375 C 131 -71.859375 129.769531 -71.820312 128.5625 -71.75 C 127.363281 -71.675781 126.238281 -71.570312 125.1875 -71.4375 C 124.488281 -71.351562 123.878906 -71.3125 123.359375 -71.3125 C 122.554688 -71.3125 121.992188 -71.398438 121.671875 -71.578125 C 121.359375 -71.765625 121.203125 -71.984375 121.203125 -72.234375 C 121.203125 -72.535156 121.359375 -72.832031 121.671875 -73.125 C 121.992188 -73.414062 122.289062 -73.585938 122.5625 -73.640625 C 128.769531 -75.140625 134.863281 -76.921875 140.84375 -78.984375 C 146.820312 -81.046875 152.632812 -83.617188 158.28125 -86.703125 C 163.9375 -89.785156 169.351562 -93.585938 174.53125 -98.109375 C 176.101562 -99.492188 177.648438 -100.992188 179.171875 -102.609375 C 180.703125 -104.234375 182.082031 -105.890625 183.3125 -107.578125 C 184.539062 -109.265625 185.519531 -110.929688 186.25 -112.578125 C 186.988281 -114.222656 187.359375 -115.78125 187.359375 -117.25 C 187.359375 -119.1875 186.703125 -120.753906 185.390625 -121.953125 C 184.078125 -123.160156 182.117188 -123.765625 179.515625 -123.765625 C 177.679688 -123.765625 175.738281 -123.5 173.6875 -122.96875 C 171.644531 -122.445312 169.59375 -121.757812 167.53125 -120.90625 C 165.46875 -120.050781 163.46875 -119.109375 161.53125 -118.078125 C 154.351562 -114.367188 147.640625 -110.117188 141.390625 -105.328125 C 135.148438 -100.535156 129.226562 -95.363281 123.625 -89.8125 C 118.019531 -84.257812 112.585938 -78.46875 107.328125 -72.4375 C 103.335938 -67.84375 99.285156 -63.492188 95.171875 -59.390625 C 91.066406 -55.296875 87.007812 -51.488281 83 -47.96875 C 79 -44.457031 75.160156 -41.25 71.484375 -38.34375 C 75.960938 -36.707031 80.394531 -34.953125 84.78125 -33.078125 C 89.175781 -31.210938 93.570312 -29.332031 97.96875 -27.4375 C 102.375 -25.539062 106.804688 -23.742188 111.265625 -22.046875 C 115.722656 -20.359375 120.253906 -18.878906 124.859375 -17.609375 C 125.296875 -17.492188 125.726562 -17.378906 126.15625 -17.265625 C 126.582031 -17.160156 127.019531 -17.054688 127.46875 -16.953125 Z M 51.875 4.90625 C 52.707031 4.90625 53.53125 4.894531 54.34375 4.875 C 55.164062 4.863281 55.988281 4.84375 56.8125 4.8125 C 62.65625 4.5625 68.546875 3.957031 74.484375 3 C 80.429688 2.050781 86.320312 0.738281 92.15625 -0.9375 C 98 -2.613281 103.691406 -4.648438 109.234375 -7.046875 C 114.773438 -9.441406 120.066406 -12.21875 125.109375 -15.375 C 121.117188 -16.257812 117.296875 -17.328125 113.640625 -18.578125 C 109.984375 -19.835938 106.3125 -21.242188 102.625 -22.796875 C 98.945312 -24.347656 95.046875 -26 90.921875 -27.75 C 87.816406 -29.050781 84.398438 -30.46875 80.671875 -32 C 76.953125 -33.539062 73.054688 -35.015625 68.984375 -36.421875 C 65.441406 -33.679688 62.15625 -31.28125 59.125 -29.21875 C 56.09375 -27.15625 53.453125 -25.472656 51.203125 -24.171875 C 48.960938 -22.867188 47.207031 -21.96875 45.9375 -21.46875 C 45.601562 -21.363281 45.242188 -21.28125 44.859375 -21.21875 L 44.78125 -21.1875 C 44.78125 -21.207031 44.765625 -21.21875 44.734375 -21.21875 L 44.15625 -21.1875 C 43.675781 -21.1875 43.265625 -21.238281 42.921875 -21.34375 C 42.578125 -21.457031 42.40625 -21.597656 42.40625 -21.765625 C 42.40625 -21.878906 42.570312 -22.015625 42.90625 -22.171875 C 46.476562 -24.035156 50.101562 -26.300781 53.78125 -28.96875 C 57.46875 -31.644531 61.148438 -34.585938 64.828125 -37.796875 C 60.097656 -39.316406 55.28125 -40.578125 50.375 -41.578125 C 45.476562 -42.578125 40.691406 -43.078125 36.015625 -43.078125 C 32.378906 -43.078125 28.875 -42.707031 25.5 -41.96875 C 22.125 -41.238281 18.929688 -40.035156 15.921875 -38.359375 C 12.921875 -36.679688 10.1875 -34.429688 7.71875 -31.609375 C 6.363281 -30.085938 5.390625 -28.519531 4.796875 -26.90625 C 4.203125 -25.300781 3.90625 -23.695312 3.90625 -22.09375 C 3.90625 -20.125 4.296875 -18.1875 5.078125 -16.28125 C 5.867188 -14.375 6.953125 -12.5625 8.328125 -10.84375 C 9.703125 -9.125 11.273438 -7.550781 13.046875 -6.125 C 14.816406 -4.695312 16.6875 -3.457031 18.65625 -2.40625 C 23.851562 0.363281 29.25 2.273438 34.84375 3.328125 C 40.4375 4.378906 46.113281 4.90625 51.875 4.90625 Z M 51.875 4.90625 "/></g></g></g><g fill="#4c2d0c" fill-opacity="1"><g transform="translate(3.889108, 281.20898)"><g><path d="M 47.390625 5.609375 C 45.148438 5.609375 42.898438 5.515625 40.640625 5.328125 C 38.378906 5.148438 36.144531 4.882812 33.9375 4.53125 C 30.3125 3.914062 26.878906 2.914062 23.640625 1.53125 C 20.398438 0.144531 17.4375 -1.566406 14.75 -3.609375 C 12.0625 -5.660156 9.738281 -7.992188 7.78125 -10.609375 C 5.832031 -13.222656 4.320312 -16.082031 3.25 -19.1875 C 2.1875 -22.289062 1.65625 -25.585938 1.65625 -29.078125 C 1.65625 -30.796875 1.789062 -32.539062 2.0625 -34.3125 C 2.34375 -36.082031 2.773438 -37.878906 3.359375 -39.703125 C 4.992188 -44.960938 7.351562 -49.972656 10.4375 -54.734375 C 13.53125 -59.503906 17.179688 -63.976562 21.390625 -68.15625 C 25.597656 -72.34375 30.226562 -76.191406 35.28125 -79.703125 C 40.332031 -83.222656 45.675781 -86.359375 51.3125 -89.109375 C 56.945312 -91.867188 62.71875 -94.207031 68.625 -96.125 C 74.539062 -98.050781 80.46875 -99.519531 86.40625 -100.53125 C 92.351562 -101.539062 98.148438 -102.046875 103.796875 -102.046875 C 106.753906 -102.046875 109.648438 -101.898438 112.484375 -101.609375 C 115.328125 -101.316406 118.078125 -100.867188 120.734375 -100.265625 C 119.429688 -101.785156 118.398438 -103.390625 117.640625 -105.078125 C 116.878906 -106.765625 116.5 -108.578125 116.5 -110.515625 C 116.5 -112.847656 117.046875 -115.148438 118.140625 -117.421875 C 119.234375 -119.691406 120.707031 -121.804688 122.5625 -123.765625 C 119.40625 -124.898438 116.320312 -125.863281 113.3125 -126.65625 C 110.3125 -127.445312 107.300781 -128.050781 104.28125 -128.46875 C 101.269531 -128.882812 98.144531 -129.09375 94.90625 -129.09375 C 90.363281 -129.09375 85.71875 -128.671875 80.96875 -127.828125 C 76.21875 -126.984375 71.546875 -125.722656 66.953125 -124.046875 C 62.359375 -122.367188 58 -120.289062 53.875 -117.8125 C 49.75 -115.332031 46.023438 -112.441406 42.703125 -109.140625 C 39.378906 -105.847656 36.632812 -102.171875 34.46875 -98.109375 C 34.28125 -97.773438 34.128906 -97.609375 34.015625 -97.609375 C 33.984375 -97.609375 33.96875 -97.660156 33.96875 -97.765625 C 33.96875 -98.097656 34.238281 -98.878906 34.78125 -100.109375 C 35.320312 -101.347656 36.164062 -102.894531 37.3125 -104.75 C 38.46875 -106.601562 39.957031 -108.613281 41.78125 -110.78125 C 43.613281 -112.957031 45.816406 -115.15625 48.390625 -117.375 C 50.960938 -119.59375 53.953125 -121.695312 57.359375 -123.6875 C 60.765625 -125.6875 64.617188 -127.414062 68.921875 -128.875 C 73.234375 -130.34375 78.019531 -131.394531 83.28125 -132.03125 C 86.15625 -132.363281 88.976562 -132.53125 91.75 -132.53125 C 97.59375 -132.53125 103.226562 -131.882812 108.65625 -130.59375 C 114.082031 -129.3125 119.34375 -127.644531 124.4375 -125.59375 C 125.738281 -126.757812 127.148438 -127.84375 128.671875 -128.84375 C 133.128906 -131.71875 137.847656 -133.816406 142.828125 -135.140625 C 147.816406 -136.472656 152.773438 -137.140625 157.703125 -137.140625 C 161.222656 -137.140625 164.632812 -136.832031 167.9375 -136.21875 C 171.25 -135.613281 174.375 -134.726562 177.3125 -133.5625 C 180.25 -132.40625 182.90625 -131.007812 185.28125 -129.375 C 186.75 -128.382812 188.09375 -127.160156 189.3125 -125.703125 C 190.53125 -124.242188 191.503906 -122.695312 192.234375 -121.0625 C 192.972656 -119.4375 193.34375 -117.804688 193.34375 -116.171875 C 193.34375 -115.203125 193.175781 -114.234375 192.84375 -113.265625 C 192.070312 -111.078125 190.785156 -109.273438 188.984375 -107.859375 C 187.179688 -106.453125 185.066406 -105.410156 182.640625 -104.734375 C 180.222656 -104.054688 177.6875 -103.71875 175.03125 -103.71875 C 172.007812 -103.71875 169.09375 -104.046875 166.28125 -104.703125 C 163.46875 -105.367188 160.753906 -106.226562 158.140625 -107.28125 C 155.523438 -108.332031 153.007812 -109.472656 150.59375 -110.703125 C 148.1875 -111.941406 145.878906 -113.140625 143.671875 -114.296875 C 141.503906 -115.429688 139.265625 -116.566406 136.953125 -117.703125 C 134.640625 -118.835938 132.253906 -119.921875 129.796875 -120.953125 C 127.859375 -118.648438 126.46875 -116.453125 125.625 -114.359375 C 124.78125 -112.273438 124.359375 -110.304688 124.359375 -108.453125 C 124.359375 -106.179688 124.910156 -104.101562 126.015625 -102.21875 C 127.117188 -100.332031 128.554688 -98.671875 130.328125 -97.234375 C 133.566406 -95.878906 136.519531 -94.242188 139.1875 -92.328125 C 139.65625 -92.023438 139.992188 -91.710938 140.203125 -91.390625 C 140.410156 -91.078125 140.515625 -90.8125 140.515625 -90.59375 C 140.515625 -90.03125 140.113281 -89.75 139.3125 -89.75 C 138.832031 -89.75 138.265625 -89.875 137.609375 -90.125 C 135.503906 -90.925781 133.363281 -91.835938 131.1875 -92.859375 C 129.007812 -93.890625 126.984375 -95.082031 125.109375 -96.4375 C 122.222656 -97.40625 119.207031 -98.117188 116.0625 -98.578125 C 112.925781 -99.035156 109.695312 -99.265625 106.375 -99.265625 C 101.832031 -99.265625 97.191406 -98.863281 92.453125 -98.0625 C 87.722656 -97.257812 82.988281 -96.117188 78.25 -94.640625 C 73.519531 -93.160156 68.882812 -91.378906 64.34375 -89.296875 C 59.800781 -87.222656 55.453125 -84.910156 51.296875 -82.359375 C 47.972656 -80.316406 44.710938 -78.015625 41.515625 -75.453125 C 38.316406 -72.890625 35.265625 -70.132812 32.359375 -67.1875 C 29.453125 -64.238281 26.78125 -61.144531 24.34375 -57.90625 C 21.90625 -54.664062 19.785156 -51.332031 17.984375 -47.90625 C 16.179688 -44.488281 14.78125 -41.023438 13.78125 -37.515625 C 12.789062 -34.015625 12.296875 -30.535156 12.296875 -27.078125 C 12.296875 -25.253906 12.445312 -23.441406 12.75 -21.640625 C 13.050781 -19.835938 13.519531 -18.066406 14.15625 -16.328125 C 15.457031 -12.753906 17.300781 -9.738281 19.6875 -7.28125 C 22.070312 -4.832031 24.851562 -2.875 28.03125 -1.40625 C 31.21875 0.0625 34.6875 1.125 38.4375 1.78125 C 42.1875 2.445312 46.054688 2.78125 50.046875 2.78125 C 54.867188 2.78125 59.734375 2.382812 64.640625 1.59375 C 69.554688 0.8125 74.191406 -0.203125 78.546875 -1.453125 C 82.140625 -2.472656 85.414062 -3.484375 88.375 -4.484375 C 91.34375 -5.484375 94.097656 -6.492188 96.640625 -7.515625 C 99.191406 -8.535156 101.648438 -9.59375 104.015625 -10.6875 C 106.390625 -11.78125 108.773438 -12.929688 111.171875 -14.140625 C 113.566406 -15.347656 116.078125 -16.644531 118.703125 -18.03125 C 121.335938 -19.414062 124.191406 -20.894531 127.265625 -22.46875 C 132.828125 -25.351562 138.269531 -27.523438 143.59375 -28.984375 C 148.925781 -30.453125 154.019531 -31.1875 158.875 -31.1875 C 162.75 -31.1875 166.4375 -30.707031 169.9375 -29.75 C 173.4375 -28.800781 176.722656 -27.332031 179.796875 -25.34375 C 180.273438 -25.03125 180.515625 -24.75 180.515625 -24.5 C 180.515625 -24.332031 180.414062 -24.207031 180.21875 -24.125 C 180.019531 -24.039062 179.785156 -24 179.515625 -24 C 179.128906 -24 178.769531 -24.082031 178.4375 -24.25 C 175.632812 -25.96875 172.597656 -27.25 169.328125 -28.09375 C 166.066406 -28.9375 162.625 -29.359375 159 -29.359375 C 154.5625 -29.359375 149.925781 -28.710938 145.09375 -27.421875 C 140.269531 -26.140625 135.335938 -24.210938 130.296875 -21.640625 C 127.054688 -19.972656 123.492188 -18.148438 119.609375 -16.171875 C 115.734375 -14.191406 111.601562 -12.175781 107.21875 -10.125 C 102.832031 -8.082031 98.25 -6.125 93.46875 -4.25 C 88.695312 -2.382812 83.769531 -0.710938 78.6875 0.765625 C 73.601562 2.242188 68.441406 3.421875 63.203125 4.296875 C 57.972656 5.171875 52.703125 5.609375 47.390625 5.609375 Z M 173.109375 -105.25 C 174.691406 -105.25 176.269531 -105.414062 177.84375 -105.75 C 179.425781 -106.082031 180.976562 -106.617188 182.5 -107.359375 C 185.132812 -108.660156 187.066406 -110.304688 188.296875 -112.296875 C 189.523438 -114.296875 190.140625 -116.320312 190.140625 -118.375 C 190.140625 -120.75 189.421875 -122.910156 187.984375 -124.859375 C 186.796875 -126.460938 185.234375 -127.863281 183.296875 -129.0625 C 181.359375 -130.269531 179.203125 -131.273438 176.828125 -132.078125 C 174.460938 -132.878906 172.054688 -133.476562 169.609375 -133.875 C 167.160156 -134.28125 164.828125 -134.484375 162.609375 -134.484375 L 160.90625 -134.453125 C 158.4375 -134.335938 155.851562 -133.988281 153.15625 -133.40625 C 150.457031 -132.820312 147.78125 -132.03125 145.125 -131.03125 C 142.46875 -130.039062 139.953125 -128.84375 137.578125 -127.4375 C 135.210938 -126.039062 133.128906 -124.445312 131.328125 -122.65625 C 133.410156 -121.707031 135.460938 -120.734375 137.484375 -119.734375 C 139.503906 -118.742188 141.492188 -117.738281 143.453125 -116.71875 C 144.953125 -115.9375 146.582031 -115.046875 148.34375 -114.046875 C 150.101562 -113.054688 151.960938 -112.046875 153.921875 -111.015625 C 155.890625 -109.992188 157.929688 -109.046875 160.046875 -108.171875 C 162.171875 -107.304688 164.328125 -106.601562 166.515625 -106.0625 C 168.703125 -105.519531 170.898438 -105.25 173.109375 -105.25 Z M 173.109375 -105.25 "/></g></g></g></g></g><g transform="matrix(1, 0, 0, 1, 101, 284)"><g clip-path="url(#86d59537a6)"><g fill="#4c2d0c" fill-opacity="1"><g transform="translate(2.490452, 43.877441)"><g><path d="M 19.40625 0 L 19.40625 -0.84375 C 20.351562 -0.894531 21.070312 -1.003906 21.5625 -1.171875 C 22.0625 -1.347656 22.394531 -1.6875 22.5625 -2.1875 C 22.726562 -2.695312 22.8125 -3.457031 22.8125 -4.46875 L 22.8125 -25.390625 C 22.8125 -26.429688 22.726562 -27.195312 22.5625 -27.6875 C 22.394531 -28.175781 22.0625 -28.507812 21.5625 -28.6875 C 21.070312 -28.875 20.351562 -28.984375 19.40625 -29.015625 L 19.40625 -29.859375 C 20.050781 -29.828125 20.863281 -29.796875 21.84375 -29.765625 C 22.832031 -29.742188 23.800781 -29.734375 24.75 -29.734375 C 25.851562 -29.734375 26.878906 -29.742188 27.828125 -29.765625 C 28.785156 -29.796875 29.5625 -29.828125 30.15625 -29.859375 L 30.15625 -29.015625 C 29.195312 -28.984375 28.472656 -28.875 27.984375 -28.6875 C 27.492188 -28.507812 27.160156 -28.175781 26.984375 -27.6875 C 26.816406 -27.195312 26.734375 -26.429688 26.734375 -25.390625 L 26.734375 -4.46875 C 26.734375 -3.457031 26.816406 -2.695312 26.984375 -2.1875 C 27.160156 -1.6875 27.492188 -1.347656 27.984375 -1.171875 C 28.472656 -1.003906 29.195312 -0.894531 30.15625 -0.84375 L 30.15625 0 C 29.5625 -0.0507812 28.785156 -0.0820312 27.828125 -0.09375 C 26.878906 -0.113281 25.851562 -0.125 24.75 -0.125 C 23.800781 -0.125 22.832031 -0.113281 21.84375 -0.09375 C 20.863281 -0.0820312 20.050781 -0.0507812 19.40625 0 Z M 1.765625 0 L 1.765625 -0.84375 C 2.722656 -0.894531 3.445312 -1.003906 3.9375 -1.171875 C 4.4375 -1.347656 4.769531 -1.6875 4.9375 -2.1875 C 5.101562 -2.695312 5.1875 -3.457031 5.1875 -4.46875 L 5.1875 -25.390625 C 5.1875 -26.429688 5.101562 -27.195312 4.9375 -27.6875 C 4.769531 -28.175781 4.4375 -28.507812 3.9375 -28.6875 C 3.445312 -28.875 2.722656 -28.984375 1.765625 -29.015625 L 1.765625 -29.859375 C 2.359375 -29.828125 3.132812 -29.796875 4.09375 -29.765625 C 5.050781 -29.742188 6.078125 -29.734375 7.171875 -29.734375 C 8.148438 -29.734375 9.125 -29.742188 10.09375 -29.765625 C 11.070312 -29.796875 11.882812 -29.828125 12.53125 -29.859375 L 12.53125 -29.015625 C 11.570312 -28.984375 10.84375 -28.875 10.34375 -28.6875 C 9.851562 -28.507812 9.523438 -28.175781 9.359375 -27.6875 C 9.191406 -27.195312 9.109375 -26.429688 9.109375 -25.390625 L 9.109375 -4.46875 C 9.109375 -3.457031 9.191406 -2.695312 9.359375 -2.1875 C 9.523438 -1.6875 9.851562 -1.347656 10.34375 -1.171875 C 10.84375 -1.003906 11.570312 -0.894531 12.53125 -0.84375 L 12.53125 0 C 11.882812 -0.0507812 11.070312 -0.0820312 10.09375 -0.09375 C 9.125 -0.113281 8.148438 -0.125 7.171875 -0.125 C 6.078125 -0.125 5.050781 -0.113281 4.09375 -0.09375 C 3.132812 -0.0820312 2.359375 -0.0507812 1.765625 0 Z M 7.640625 -14.59375 L 7.640625 -15.4375 L 24.296875 -15.4375 L 24.296875 -14.59375 Z M 7.640625 -14.59375 "/></g></g></g><g fill="#4c2d0c" fill-opacity="1"><g transform="translate(34.076409, 43.877441)"><g><path d="M 15.640625 -30.453125 C 18.316406 -30.453125 20.660156 -29.847656 22.671875 -28.640625 C 24.679688 -27.429688 26.238281 -25.691406 27.34375 -23.421875 C 28.457031 -21.160156 29.015625 -18.414062 29.015625 -15.1875 C 29.015625 -12.03125 28.441406 -9.269531 27.296875 -6.90625 C 26.160156 -4.550781 24.582031 -2.710938 22.5625 -1.390625 C 20.539062 -0.0664062 18.222656 0.59375 15.609375 0.59375 C 12.929688 0.59375 10.585938 -0.0078125 8.578125 -1.21875 C 6.566406 -2.425781 5.003906 -4.171875 3.890625 -6.453125 C 2.785156 -8.734375 2.234375 -11.472656 2.234375 -14.671875 C 2.234375 -17.828125 2.804688 -20.582031 3.953125 -22.9375 C 5.109375 -25.300781 6.691406 -27.144531 8.703125 -28.46875 C 10.710938 -29.789062 13.023438 -30.453125 15.640625 -30.453125 Z M 15.484375 -29.6875 C 13.648438 -29.6875 12.054688 -29.050781 10.703125 -27.78125 C 9.359375 -26.519531 8.3125 -24.78125 7.5625 -22.5625 C 6.820312 -20.34375 6.453125 -17.769531 6.453125 -14.84375 C 6.453125 -11.863281 6.863281 -9.269531 7.6875 -7.0625 C 8.519531 -4.851562 9.644531 -3.148438 11.0625 -1.953125 C 12.488281 -0.765625 14.054688 -0.171875 15.765625 -0.171875 C 17.597656 -0.171875 19.1875 -0.800781 20.53125 -2.0625 C 21.882812 -3.332031 22.929688 -5.082031 23.671875 -7.3125 C 24.421875 -9.550781 24.796875 -12.117188 24.796875 -15.015625 C 24.796875 -18.023438 24.378906 -20.625 23.546875 -22.8125 C 22.722656 -25.007812 21.609375 -26.703125 20.203125 -27.890625 C 18.796875 -29.085938 17.222656 -29.6875 15.484375 -29.6875 Z M 15.484375 -29.6875 "/></g></g></g><g fill="#4c2d0c" fill-opacity="1"><g transform="translate(65.325003, 43.877441)"><g><path d="M 10.796875 -30.328125 C 12.203125 -30.328125 13.269531 -30.164062 14 -29.84375 C 14.726562 -29.519531 15.375 -29.160156 15.9375 -28.765625 C 16.28125 -28.566406 16.554688 -28.414062 16.765625 -28.3125 C 16.972656 -28.21875 17.175781 -28.171875 17.375 -28.171875 C 17.65625 -28.171875 17.859375 -28.320312 17.984375 -28.625 C 18.109375 -28.9375 18.210938 -29.40625 18.296875 -30.03125 L 19.265625 -30.03125 C 19.242188 -29.550781 19.210938 -28.976562 19.171875 -28.3125 C 19.128906 -27.65625 19.097656 -26.785156 19.078125 -25.703125 C 19.066406 -24.617188 19.0625 -23.191406 19.0625 -21.421875 L 18.09375 -21.421875 C 18.007812 -22.773438 17.710938 -24.066406 17.203125 -25.296875 C 16.703125 -26.535156 15.960938 -27.546875 14.984375 -28.328125 C 14.015625 -29.117188 12.742188 -29.515625 11.171875 -29.515625 C 9.679688 -29.515625 8.453125 -29.066406 7.484375 -28.171875 C 6.515625 -27.273438 6.03125 -26.09375 6.03125 -24.625 C 6.03125 -23.363281 6.351562 -22.300781 7 -21.4375 C 7.644531 -20.582031 8.507812 -19.8125 9.59375 -19.125 C 10.675781 -18.4375 11.847656 -17.695312 13.109375 -16.90625 C 14.578125 -16.007812 15.878906 -15.117188 17.015625 -14.234375 C 18.148438 -13.347656 19.046875 -12.367188 19.703125 -11.296875 C 20.367188 -10.234375 20.703125 -8.941406 20.703125 -7.421875 C 20.703125 -5.617188 20.296875 -4.128906 19.484375 -2.953125 C 18.671875 -1.773438 17.585938 -0.890625 16.234375 -0.296875 C 14.890625 0.296875 13.398438 0.59375 11.765625 0.59375 C 10.273438 0.59375 9.09375 0.421875 8.21875 0.078125 C 7.351562 -0.253906 6.609375 -0.601562 5.984375 -0.96875 C 5.367188 -1.363281 4.890625 -1.5625 4.546875 -1.5625 C 4.273438 -1.5625 4.070312 -1.40625 3.9375 -1.09375 C 3.8125 -0.78125 3.707031 -0.316406 3.625 0.296875 L 2.65625 0.296875 C 2.707031 -0.296875 2.738281 -0.992188 2.75 -1.796875 C 2.769531 -2.597656 2.785156 -3.644531 2.796875 -4.9375 C 2.816406 -6.226562 2.828125 -7.859375 2.828125 -9.828125 L 3.796875 -9.828125 C 3.910156 -8.140625 4.226562 -6.5625 4.75 -5.09375 C 5.269531 -3.632812 6.066406 -2.460938 7.140625 -1.578125 C 8.222656 -0.691406 9.664062 -0.25 11.46875 -0.25 C 12.394531 -0.25 13.269531 -0.4375 14.09375 -0.8125 C 14.925781 -1.195312 15.609375 -1.800781 16.140625 -2.625 C 16.679688 -3.457031 16.953125 -4.535156 16.953125 -5.859375 C 16.953125 -7.015625 16.675781 -8.019531 16.125 -8.875 C 15.582031 -9.726562 14.816406 -10.53125 13.828125 -11.28125 C 12.847656 -12.03125 11.695312 -12.796875 10.375 -13.578125 C 9.050781 -14.390625 7.8125 -15.21875 6.65625 -16.0625 C 5.507812 -16.90625 4.59375 -17.882812 3.90625 -19 C 3.21875 -20.113281 2.875 -21.457031 2.875 -23.03125 C 2.875 -24.6875 3.242188 -26.054688 3.984375 -27.140625 C 4.734375 -28.222656 5.710938 -29.023438 6.921875 -29.546875 C 8.128906 -30.066406 9.421875 -30.328125 10.796875 -30.328125 Z M 10.796875 -30.328125 "/></g></g></g><g fill="#4c2d0c" fill-opacity="1"><g transform="translate(88.097252, 43.877441)"><g><path d="M 24.96875 -29.859375 C 24.851562 -28.785156 24.773438 -27.75 24.734375 -26.75 C 24.691406 -25.757812 24.671875 -24.992188 24.671875 -24.453125 C 24.671875 -23.785156 24.679688 -23.15625 24.703125 -22.5625 C 24.734375 -21.96875 24.765625 -21.445312 24.796875 -21 L 23.828125 -21 C 23.628906 -22.96875 23.359375 -24.519531 23.015625 -25.65625 C 22.679688 -26.800781 22.09375 -27.625 21.25 -28.125 C 20.40625 -28.632812 19.097656 -28.890625 17.328125 -28.890625 L 15.0625 -28.890625 L 15.0625 -4.890625 C 15.0625 -3.765625 15.164062 -2.921875 15.375 -2.359375 C 15.582031 -1.796875 15.992188 -1.414062 16.609375 -1.21875 C 17.234375 -1.019531 18.132812 -0.894531 19.3125 -0.84375 L 19.3125 0 C 18.582031 -0.0507812 17.65625 -0.0820312 16.53125 -0.09375 C 15.40625 -0.113281 14.265625 -0.125 13.109375 -0.125 C 11.847656 -0.125 10.660156 -0.113281 9.546875 -0.09375 C 8.441406 -0.0820312 7.550781 -0.0507812 6.875 0 L 6.875 -0.84375 C 8.050781 -0.894531 8.945312 -1.019531 9.5625 -1.21875 C 10.1875 -1.414062 10.601562 -1.796875 10.8125 -2.359375 C 11.03125 -2.921875 11.140625 -3.765625 11.140625 -4.890625 L 11.140625 -28.890625 L 8.859375 -28.890625 C 7.109375 -28.890625 5.804688 -28.632812 4.953125 -28.125 C 4.097656 -27.625 3.5 -26.800781 3.15625 -25.65625 C 2.820312 -24.519531 2.554688 -22.96875 2.359375 -21 L 1.390625 -21 C 1.441406 -21.445312 1.472656 -21.96875 1.484375 -22.5625 C 1.503906 -23.15625 1.515625 -23.785156 1.515625 -24.453125 C 1.515625 -24.992188 1.492188 -25.757812 1.453125 -26.75 C 1.410156 -27.75 1.332031 -28.785156 1.21875 -29.859375 C 2.40625 -29.828125 3.691406 -29.796875 5.078125 -29.765625 C 6.472656 -29.742188 7.875 -29.734375 9.28125 -29.734375 C 10.6875 -29.734375 11.960938 -29.734375 13.109375 -29.734375 C 14.265625 -29.734375 15.535156 -29.734375 16.921875 -29.734375 C 18.316406 -29.734375 19.71875 -29.742188 21.125 -29.765625 C 22.53125 -29.796875 23.8125 -29.828125 24.96875 -29.859375 Z M 24.96875 -29.859375 "/></g></g></g><g fill="#4c2d0c" fill-opacity="1"><g transform="translate(114.285339, 43.877441)"><g><path d="M 22.8125 -29.859375 C 22.695312 -28.867188 22.617188 -27.910156 22.578125 -26.984375 C 22.535156 -26.054688 22.515625 -25.351562 22.515625 -24.875 C 22.515625 -24.375 22.53125 -23.890625 22.5625 -23.421875 C 22.59375 -22.960938 22.617188 -22.578125 22.640625 -22.265625 L 21.671875 -22.265625 C 21.503906 -23.921875 21.265625 -25.234375 20.953125 -26.203125 C 20.648438 -27.179688 20.125 -27.875 19.375 -28.28125 C 18.632812 -28.6875 17.519531 -28.890625 16.03125 -28.890625 L 12.53125 -28.890625 C 11.570312 -28.890625 10.84375 -28.8125 10.34375 -28.65625 C 9.851562 -28.5 9.523438 -28.175781 9.359375 -27.6875 C 9.191406 -27.195312 9.109375 -26.429688 9.109375 -25.390625 L 9.109375 -4.46875 C 9.109375 -3.457031 9.191406 -2.695312 9.359375 -2.1875 C 9.523438 -1.6875 9.851562 -1.359375 10.34375 -1.203125 C 10.84375 -1.046875 11.570312 -0.96875 12.53125 -0.96875 L 15.609375 -0.96875 C 17.378906 -0.96875 18.71875 -1.207031 19.625 -1.6875 C 20.539062 -2.164062 21.203125 -2.945312 21.609375 -4.03125 C 22.015625 -5.113281 22.316406 -6.582031 22.515625 -8.4375 L 23.484375 -8.4375 C 23.398438 -7.675781 23.359375 -6.660156 23.359375 -5.390625 C 23.359375 -4.859375 23.378906 -4.09375 23.421875 -3.09375 C 23.460938 -2.101562 23.539062 -1.070312 23.65625 0 C 22.21875 -0.0507812 20.597656 -0.0820312 18.796875 -0.09375 C 17.003906 -0.113281 15.40625 -0.125 14 -0.125 C 13.382812 -0.125 12.585938 -0.125 11.609375 -0.125 C 10.640625 -0.125 9.59375 -0.113281 8.46875 -0.09375 C 7.351562 -0.0820312 6.21875 -0.0703125 5.0625 -0.0625 C 3.90625 -0.0507812 2.804688 -0.03125 1.765625 0 L 1.765625 -0.84375 C 2.722656 -0.894531 3.445312 -1.003906 3.9375 -1.171875 C 4.4375 -1.347656 4.769531 -1.6875 4.9375 -2.1875 C 5.101562 -2.695312 5.1875 -3.457031 5.1875 -4.46875 L 5.1875 -25.390625 C 5.1875 -26.429688 5.101562 -27.195312 4.9375 -27.6875 C 4.769531 -28.175781 4.4375 -28.507812 3.9375 -28.6875 C 3.445312 -28.875 2.722656 -28.984375 1.765625 -29.015625 L 1.765625 -29.859375 C 2.804688 -29.828125 3.90625 -29.800781 5.0625 -29.78125 C 6.21875 -29.769531 7.351562 -29.757812 8.46875 -29.75 C 9.59375 -29.738281 10.640625 -29.734375 11.609375 -29.734375 C 12.585938 -29.734375 13.382812 -29.734375 14 -29.734375 C 15.289062 -29.734375 16.757812 -29.738281 18.40625 -29.75 C 20.050781 -29.757812 21.519531 -29.796875 22.8125 -29.859375 Z M 15.5625 -15.4375 C 15.5625 -15.4375 15.5625 -15.296875 15.5625 -15.015625 C 15.5625 -14.734375 15.5625 -14.59375 15.5625 -14.59375 L 7.84375 -14.59375 C 7.84375 -14.59375 7.84375 -14.734375 7.84375 -15.015625 C 7.84375 -15.296875 7.84375 -15.4375 7.84375 -15.4375 Z M 16.78125 -21 C 16.664062 -19.394531 16.613281 -18.171875 16.625 -17.328125 C 16.644531 -16.484375 16.65625 -15.710938 16.65625 -15.015625 C 16.65625 -14.304688 16.671875 -13.53125 16.703125 -12.6875 C 16.734375 -11.84375 16.800781 -10.625 16.90625 -9.03125 L 15.9375 -9.03125 C 15.820312 -9.925781 15.6875 -10.800781 15.53125 -11.65625 C 15.382812 -12.519531 15.050781 -13.222656 14.53125 -13.765625 C 14.007812 -14.316406 13.128906 -14.59375 11.890625 -14.59375 L 11.890625 -15.4375 C 12.816406 -15.4375 13.523438 -15.625 14.015625 -16 C 14.515625 -16.382812 14.875 -16.867188 15.09375 -17.453125 C 15.320312 -18.046875 15.476562 -18.660156 15.5625 -19.296875 C 15.644531 -19.929688 15.726562 -20.5 15.8125 -21 Z M 16.78125 -21 "/></g></g></g><g fill="#4c2d0c" fill-opacity="1"><g transform="translate(139.967382, 43.877441)"><g><path d="M 13.28125 -29.859375 C 18.3125 -29.859375 22.050781 -28.597656 24.5 -26.078125 C 26.945312 -23.566406 28.171875 -19.960938 28.171875 -15.265625 C 28.171875 -12.203125 27.570312 -9.523438 26.375 -7.234375 C 25.1875 -4.941406 23.453125 -3.160156 21.171875 -1.890625 C 18.890625 -0.628906 16.132812 0 12.90625 0 C 12.476562 0 11.910156 -0.0078125 11.203125 -0.03125 C 10.503906 -0.0625 9.78125 -0.0820312 9.03125 -0.09375 C 8.289062 -0.113281 7.613281 -0.125 7 -0.125 C 6.019531 -0.125 5.050781 -0.113281 4.09375 -0.09375 C 3.132812 -0.0820312 2.359375 -0.0507812 1.765625 0 L 1.765625 -0.84375 C 2.722656 -0.894531 3.445312 -1.003906 3.9375 -1.171875 C 4.4375 -1.347656 4.769531 -1.6875 4.9375 -2.1875 C 5.101562 -2.695312 5.1875 -3.457031 5.1875 -4.46875 L 5.1875 -25.390625 C 5.1875 -26.429688 5.101562 -27.195312 4.9375 -27.6875 C 4.769531 -28.175781 4.4375 -28.507812 3.9375 -28.6875 C 3.445312 -28.875 2.722656 -28.984375 1.765625 -29.015625 L 1.765625 -29.859375 C 2.359375 -29.828125 3.132812 -29.789062 4.09375 -29.75 C 5.050781 -29.707031 5.992188 -29.703125 6.921875 -29.734375 C 7.898438 -29.753906 9.007812 -29.78125 10.25 -29.8125 C 11.488281 -29.84375 12.5 -29.859375 13.28125 -29.859375 Z M 12.234375 -29.09375 C 10.941406 -29.09375 10.097656 -28.851562 9.703125 -28.375 C 9.304688 -27.90625 9.109375 -26.9375 9.109375 -25.46875 L 9.109375 -4.390625 C 9.109375 -2.921875 9.3125 -1.945312 9.71875 -1.46875 C 10.125 -1 10.972656 -0.765625 12.265625 -0.765625 C 15.335938 -0.765625 17.710938 -1.316406 19.390625 -2.421875 C 21.078125 -3.535156 22.257812 -5.160156 22.9375 -7.296875 C 23.613281 -9.429688 23.953125 -12.03125 23.953125 -15.09375 C 23.953125 -18.25 23.578125 -20.859375 22.828125 -22.921875 C 22.085938 -24.984375 20.863281 -26.523438 19.15625 -27.546875 C 17.457031 -28.578125 15.148438 -29.09375 12.234375 -29.09375 Z M 12.234375 -29.09375 "/></g></g></g></g></g></svg>