<svg xmlns="http://www.w3.org/2000/svg" xmlns:xlink="http://www.w3.org/1999/xlink" width="500" zoomAndPan="magnify" viewBox="0 0 375 374.999991" height="500" preserveAspectRatio="xMidYMid meet" version="1.0"><defs><g/><clipPath id="b2d75bb940"><rect x="0" width="258" y="0" height="375"/></clipPath></defs><g transform="matrix(1, 0, 0, 1, 68, 0)"><g clip-path="url(#b2d75bb940)"><g fill="#4c2d0c" fill-opacity="1"><g transform="translate(0.953374, 183.489433)"><g><path d="M 73.09375 11.921875 C 65.113281 11.921875 57.3125 11.160156 49.6875 9.640625 C 42.0625 8.117188 34.578125 5.585938 27.234375 2.046875 C 24.867188 0.929688 22.453125 -0.421875 19.984375 -2.015625 C 17.515625 -3.609375 15.140625 -5.394531 12.859375 -7.375 C 10.585938 -9.363281 8.546875 -11.539062 6.734375 -13.90625 C 4.929688 -16.269531 3.5 -18.796875 2.4375 -21.484375 C 1.382812 -24.171875 0.859375 -27 0.859375 -29.96875 C 0.859375 -33.007812 1.375 -35.773438 2.40625 -38.265625 C 3.445312 -40.753906 4.863281 -42.992188 6.65625 -44.984375 C 8.445312 -46.972656 10.503906 -48.734375 12.828125 -50.265625 C 15.160156 -51.804688 17.613281 -53.128906 20.1875 -54.234375 C 22.769531 -55.347656 25.351562 -56.285156 27.9375 -57.046875 C 31.007812 -57.941406 34.082031 -58.582031 37.15625 -58.96875 C 40.238281 -59.363281 43.320312 -59.5625 46.40625 -59.5625 C 50.988281 -59.5625 55.546875 -59.191406 60.078125 -58.453125 C 64.609375 -57.722656 69.109375 -56.75 73.578125 -55.53125 C 78.054688 -54.320312 82.460938 -52.984375 86.796875 -51.515625 C 91.234375 -55.484375 95.628906 -59.632812 99.984375 -63.96875 C 104.335938 -68.300781 108.625 -72.6875 112.84375 -77.125 C 117.070312 -81.570312 121.191406 -85.953125 125.203125 -90.265625 C 129.210938 -94.578125 133.078125 -98.726562 136.796875 -102.71875 C 140.523438 -106.71875 144.054688 -110.414062 147.390625 -113.8125 C 152.109375 -119.46875 156.582031 -124.988281 160.8125 -130.375 C 165.039062 -135.769531 168.941406 -140.863281 172.515625 -145.65625 C 176.097656 -150.457031 179.25 -154.828125 181.96875 -158.765625 C 178.28125 -157.335938 174.429688 -156.210938 170.421875 -155.390625 C 166.410156 -154.566406 162.300781 -153.921875 158.09375 -153.453125 C 153.882812 -152.984375 149.648438 -152.535156 145.390625 -152.109375 C 141.128906 -151.679688 136.925781 -151.125 132.78125 -150.4375 C 126.15625 -149.332031 119.941406 -147.5625 114.140625 -145.125 C 108.335938 -142.6875 103.085938 -139.523438 98.390625 -135.640625 C 93.703125 -131.753906 89.703125 -127.085938 86.390625 -121.640625 C 83.078125 -116.203125 80.597656 -109.921875 78.953125 -102.796875 C 78.878906 -102.515625 78.738281 -102.375 78.53125 -102.375 C 78.28125 -102.375 78 -102.585938 77.6875 -103.015625 C 77.382812 -103.441406 77.234375 -103.976562 77.234375 -104.625 L 77.34375 -105.328125 C 78.8125 -112.097656 81.03125 -118.066406 84 -123.234375 C 86.976562 -128.410156 90.597656 -132.914062 94.859375 -136.75 C 99.117188 -140.582031 103.90625 -143.835938 109.21875 -146.515625 C 114.539062 -149.203125 120.28125 -151.425781 126.4375 -153.1875 C 130.019531 -154.21875 133.695312 -155.03125 137.46875 -155.625 C 141.25 -156.21875 145.082031 -156.738281 148.96875 -157.1875 C 152.851562 -157.632812 156.691406 -158.160156 160.484375 -158.765625 C 164.285156 -159.378906 167.972656 -160.210938 171.546875 -161.265625 C 175.128906 -162.328125 178.53125 -163.742188 181.75 -165.515625 C 184.976562 -167.285156 187.953125 -169.582031 190.671875 -172.40625 C 190.960938 -172.695312 191.359375 -172.84375 191.859375 -172.84375 C 192.535156 -172.84375 193.285156 -172.632812 194.109375 -172.21875 C 194.929688 -171.8125 195.640625 -171.3125 196.234375 -170.71875 C 196.828125 -170.125 197.125 -169.539062 197.125 -168.96875 C 197.125 -168.757812 197.066406 -168.566406 196.953125 -168.390625 C 195.054688 -165.273438 192.800781 -162.003906 190.1875 -158.578125 C 187.570312 -155.160156 184.75 -151.707031 181.71875 -148.21875 C 178.695312 -144.726562 175.609375 -141.269531 172.453125 -137.84375 C 169.304688 -134.425781 166.25 -131.125 163.28125 -127.9375 C 166.394531 -130.40625 169.769531 -132.960938 173.40625 -135.609375 C 177.039062 -138.265625 180.835938 -140.878906 184.796875 -143.453125 C 188.753906 -146.035156 192.753906 -148.472656 196.796875 -150.765625 C 200.835938 -153.054688 204.847656 -155.078125 208.828125 -156.828125 C 212.804688 -158.585938 216.640625 -159.96875 220.328125 -160.96875 C 224.015625 -161.96875 227.453125 -162.46875 230.640625 -162.46875 C 235.679688 -162.46875 239.613281 -161.570312 242.4375 -159.78125 C 245.269531 -158 247.191406 -155.300781 248.203125 -151.6875 C 248.484375 -150.644531 248.625 -149.53125 248.625 -148.34375 C 248.625 -145.914062 248.078125 -143.144531 246.984375 -140.03125 C 245.898438 -136.914062 244.289062 -133.753906 242.15625 -130.546875 C 240.019531 -127.335938 237.394531 -124.335938 234.28125 -121.546875 C 229.019531 -116.859375 223.722656 -112.925781 218.390625 -109.75 C 213.054688 -106.582031 207.773438 -104.003906 202.546875 -102.015625 C 197.316406 -100.035156 192.203125 -98.453125 187.203125 -97.265625 C 182.210938 -96.085938 177.40625 -95.140625 172.78125 -94.421875 L 176.328125 -94.484375 C 178.617188 -94.484375 180.988281 -94.347656 183.4375 -94.078125 C 185.894531 -93.804688 188.367188 -93.300781 190.859375 -92.5625 C 193.347656 -91.832031 195.765625 -90.757812 198.109375 -89.34375 C 200.453125 -87.9375 202.664062 -86.066406 204.75 -83.734375 C 206.925781 -81.296875 208.488281 -78.71875 209.4375 -76 C 210.394531 -73.28125 210.875 -70.488281 210.875 -67.625 C 210.875 -64.257812 210.332031 -60.875 209.25 -57.46875 C 208.175781 -54.070312 206.742188 -50.78125 204.953125 -47.59375 C 203.171875 -44.40625 201.203125 -41.410156 199.046875 -38.609375 C 196.898438 -35.816406 194.769531 -33.347656 192.65625 -31.203125 C 190.582031 -29.054688 188.378906 -27.003906 186.046875 -25.046875 C 183.722656 -23.097656 181.34375 -21.226562 178.90625 -19.4375 C 180.695312 -19.257812 182.488281 -19.117188 184.28125 -19.015625 C 186.070312 -18.910156 187.84375 -18.859375 189.59375 -18.859375 C 198.15625 -18.859375 206.5625 -20.003906 214.8125 -22.296875 C 223.070312 -24.585938 231.03125 -28.09375 238.6875 -32.8125 C 239.050781 -33.0625 239.394531 -33.1875 239.71875 -33.1875 C 239.96875 -33.1875 240.09375 -33.097656 240.09375 -32.921875 C 240.09375 -32.710938 239.894531 -32.460938 239.5 -32.171875 C 231.832031 -26.835938 223.765625 -22.96875 215.296875 -20.5625 C 206.828125 -18.164062 197.957031 -16.96875 188.6875 -16.96875 C 184.644531 -16.96875 180.523438 -17.1875 176.328125 -17.625 C 169.316406 -12.78125 161.816406 -8.578125 153.828125 -5.015625 C 145.835938 -1.453125 137.59375 1.515625 129.09375 3.890625 C 120.59375 6.273438 112.046875 8.109375 103.453125 9.390625 C 94.859375 10.679688 86.457031 11.488281 78.25 11.8125 Z M 164.84375 -21.921875 C 167.988281 -23.953125 171.082031 -26.171875 174.125 -28.578125 C 176.601562 -30.546875 179.175781 -32.773438 181.84375 -35.265625 C 184.507812 -37.753906 187.085938 -40.4375 189.578125 -43.3125 C 192.066406 -46.195312 194.300781 -49.222656 196.28125 -52.390625 C 198.269531 -55.566406 199.851562 -58.828125 201.03125 -62.171875 C 202.21875 -65.515625 202.8125 -68.890625 202.8125 -72.296875 C 202.8125 -75.554688 202.203125 -78.359375 200.984375 -80.703125 C 199.765625 -83.046875 198.097656 -85.003906 195.984375 -86.578125 C 193.878906 -88.160156 191.460938 -89.414062 188.734375 -90.34375 C 186.015625 -91.269531 183.132812 -91.929688 180.09375 -92.328125 C 177.050781 -92.722656 174.023438 -92.921875 171.015625 -92.921875 C 169.398438 -92.921875 167.8125 -92.875 166.25 -92.78125 C 164.695312 -92.695312 163.242188 -92.566406 161.890625 -92.390625 C 160.992188 -92.273438 160.203125 -92.21875 159.515625 -92.21875 C 158.484375 -92.21875 157.757812 -92.332031 157.34375 -92.5625 C 156.9375 -92.800781 156.734375 -93.082031 156.734375 -93.40625 C 156.734375 -93.800781 156.9375 -94.1875 157.34375 -94.5625 C 157.757812 -94.9375 158.144531 -95.160156 158.5 -95.234375 C 166.519531 -97.160156 174.394531 -99.457031 182.125 -102.125 C 189.863281 -104.800781 197.382812 -108.132812 204.6875 -112.125 C 212 -116.113281 219 -121.023438 225.6875 -126.859375 C 227.726562 -128.648438 229.734375 -130.59375 231.703125 -132.6875 C 233.671875 -134.78125 235.453125 -136.921875 237.046875 -139.109375 C 238.640625 -141.296875 239.910156 -143.453125 240.859375 -145.578125 C 241.816406 -147.710938 242.296875 -149.726562 242.296875 -151.625 C 242.296875 -154.132812 241.441406 -156.164062 239.734375 -157.71875 C 238.035156 -159.28125 235.503906 -160.0625 232.140625 -160.0625 C 229.773438 -160.0625 227.265625 -159.71875 224.609375 -159.03125 C 221.960938 -158.351562 219.304688 -157.457031 216.640625 -156.34375 C 213.972656 -155.238281 211.382812 -154.023438 208.875 -152.703125 C 199.601562 -147.898438 190.929688 -142.398438 182.859375 -136.203125 C 174.785156 -130.015625 167.125 -123.328125 159.875 -116.140625 C 152.625 -108.960938 145.597656 -101.472656 138.796875 -93.671875 C 133.640625 -87.722656 128.398438 -82.097656 123.078125 -76.796875 C 117.765625 -71.503906 112.519531 -66.582031 107.34375 -62.03125 C 102.164062 -57.488281 97.195312 -53.335938 92.4375 -49.578125 C 98.238281 -47.460938 103.976562 -45.195312 109.65625 -42.78125 C 115.332031 -40.363281 121.015625 -37.925781 126.703125 -35.46875 C 132.398438 -33.019531 138.128906 -30.703125 143.890625 -28.515625 C 149.660156 -26.335938 155.515625 -24.425781 161.453125 -22.78125 C 162.023438 -22.632812 162.585938 -22.488281 163.140625 -22.34375 C 163.703125 -22.195312 164.269531 -22.054688 164.84375 -21.921875 Z M 67.078125 6.34375 C 68.160156 6.34375 69.226562 6.332031 70.28125 6.3125 C 71.332031 6.289062 72.398438 6.265625 73.484375 6.234375 C 81.035156 5.910156 88.648438 5.128906 96.328125 3.890625 C 104.015625 2.660156 111.632812 0.960938 119.1875 -1.203125 C 126.738281 -3.367188 134.09375 -6 141.25 -9.09375 C 148.414062 -12.195312 155.257812 -15.789062 161.78125 -19.875 C 156.625 -21.019531 151.679688 -22.40625 146.953125 -24.03125 C 142.222656 -25.664062 137.476562 -27.484375 132.71875 -29.484375 C 127.957031 -31.492188 122.910156 -33.625 117.578125 -35.875 C 113.566406 -37.5625 109.148438 -39.394531 104.328125 -41.375 C 99.515625 -43.363281 94.476562 -45.273438 89.21875 -47.109375 C 84.632812 -43.554688 80.378906 -40.445312 76.453125 -37.78125 C 72.535156 -35.113281 69.125 -32.9375 66.21875 -31.25 C 63.320312 -29.570312 61.050781 -28.410156 59.40625 -27.765625 C 58.976562 -27.617188 58.515625 -27.515625 58.015625 -27.453125 L 57.90625 -27.390625 C 57.90625 -27.429688 57.882812 -27.453125 57.84375 -27.453125 L 57.09375 -27.390625 C 56.488281 -27.390625 55.960938 -27.460938 55.515625 -27.609375 C 55.066406 -27.753906 54.84375 -27.929688 54.84375 -28.140625 C 54.84375 -28.285156 55.054688 -28.46875 55.484375 -28.6875 C 60.097656 -31.082031 64.785156 -34.003906 69.546875 -37.453125 C 74.316406 -40.910156 79.082031 -44.71875 83.84375 -48.875 C 77.71875 -50.84375 71.484375 -52.472656 65.140625 -53.765625 C 58.804688 -55.054688 52.613281 -55.703125 46.5625 -55.703125 C 41.875 -55.703125 37.34375 -55.226562 32.96875 -54.28125 C 28.601562 -53.332031 24.476562 -51.773438 20.59375 -49.609375 C 16.707031 -47.441406 13.171875 -44.53125 9.984375 -40.875 C 8.234375 -38.90625 6.972656 -36.878906 6.203125 -34.796875 C 5.429688 -32.722656 5.046875 -30.648438 5.046875 -28.578125 C 5.046875 -26.035156 5.554688 -23.523438 6.578125 -21.046875 C 7.597656 -18.578125 8.992188 -16.234375 10.765625 -14.015625 C 12.535156 -11.796875 14.566406 -9.765625 16.859375 -7.921875 C 19.148438 -6.078125 21.566406 -4.472656 24.109375 -3.109375 C 30.847656 0.460938 37.832031 2.929688 45.0625 4.296875 C 52.289062 5.660156 59.628906 6.34375 67.078125 6.34375 Z M 67.078125 6.34375 "/></g></g></g><g fill="#4c2d0c" fill-opacity="1"><g transform="translate(4.912908, 336.714208)"><g><path d="M 61.28125 7.25 C 58.382812 7.25 55.472656 7.128906 52.546875 6.890625 C 49.628906 6.660156 46.738281 6.316406 43.875 5.859375 C 39.1875 5.066406 34.75 3.773438 30.5625 1.984375 C 26.375 0.191406 22.539062 -2.023438 19.0625 -4.671875 C 15.59375 -7.316406 12.59375 -10.332031 10.0625 -13.71875 C 7.539062 -17.101562 5.59375 -20.800781 4.21875 -24.8125 C 2.84375 -28.820312 2.15625 -33.082031 2.15625 -37.59375 C 2.15625 -39.8125 2.332031 -42.066406 2.6875 -44.359375 C 3.039062 -46.648438 3.59375 -48.976562 4.34375 -51.34375 C 6.457031 -58.144531 9.507812 -64.625 13.5 -70.78125 C 17.5 -76.945312 22.21875 -82.734375 27.65625 -88.140625 C 33.101562 -93.546875 39.09375 -98.519531 45.625 -103.0625 C 52.164062 -107.613281 59.078125 -111.671875 66.359375 -115.234375 C 73.648438 -118.796875 81.113281 -121.820312 88.75 -124.3125 C 96.394531 -126.800781 104.054688 -128.695312 111.734375 -130 C 119.421875 -131.3125 126.914062 -131.96875 134.21875 -131.96875 C 138.050781 -131.96875 141.800781 -131.78125 145.46875 -131.40625 C 149.144531 -131.03125 152.703125 -130.445312 156.140625 -129.65625 C 154.453125 -131.625 153.113281 -133.703125 152.125 -135.890625 C 151.144531 -138.078125 150.65625 -140.421875 150.65625 -142.921875 C 150.65625 -145.929688 151.363281 -148.90625 152.78125 -151.84375 C 154.195312 -154.78125 156.101562 -157.519531 158.5 -160.0625 C 154.414062 -161.53125 150.429688 -162.773438 146.546875 -163.796875 C 142.660156 -164.816406 138.765625 -165.59375 134.859375 -166.125 C 130.960938 -166.664062 126.921875 -166.9375 122.734375 -166.9375 C 116.859375 -166.9375 110.847656 -166.390625 104.703125 -165.296875 C 98.566406 -164.203125 92.523438 -162.570312 86.578125 -160.40625 C 80.640625 -158.238281 75 -155.550781 69.65625 -152.34375 C 64.320312 -149.144531 59.503906 -145.414062 55.203125 -141.15625 C 50.910156 -136.894531 47.367188 -132.128906 44.578125 -126.859375 C 44.328125 -126.429688 44.128906 -126.21875 43.984375 -126.21875 C 43.953125 -126.21875 43.9375 -126.289062 43.9375 -126.4375 C 43.9375 -126.863281 44.285156 -127.875 44.984375 -129.46875 C 45.679688 -131.0625 46.769531 -133.054688 48.25 -135.453125 C 49.738281 -137.859375 51.664062 -140.460938 54.03125 -143.265625 C 56.394531 -146.078125 59.238281 -148.914062 62.5625 -151.78125 C 65.894531 -154.644531 69.765625 -157.363281 74.171875 -159.9375 C 78.578125 -162.519531 83.5625 -164.757812 89.125 -166.65625 C 94.695312 -168.5625 100.882812 -169.925781 107.6875 -170.75 C 111.414062 -171.175781 115.066406 -171.390625 118.640625 -171.390625 C 126.203125 -171.390625 133.488281 -170.554688 140.5 -168.890625 C 147.519531 -167.222656 154.328125 -165.066406 160.921875 -162.421875 C 162.597656 -163.921875 164.421875 -165.316406 166.390625 -166.609375 C 172.160156 -170.335938 178.265625 -173.0625 184.703125 -174.78125 C 191.148438 -176.5 197.5625 -177.359375 203.9375 -177.359375 C 208.488281 -177.359375 212.898438 -176.960938 217.171875 -176.171875 C 221.453125 -175.378906 225.488281 -174.234375 229.28125 -172.734375 C 233.082031 -171.234375 236.523438 -169.425781 239.609375 -167.3125 C 241.503906 -166.019531 243.238281 -164.429688 244.8125 -162.546875 C 246.382812 -160.671875 247.644531 -158.675781 248.59375 -156.5625 C 249.550781 -154.457031 250.03125 -152.347656 250.03125 -150.234375 C 250.03125 -148.972656 249.8125 -147.71875 249.375 -146.46875 C 248.375 -143.644531 246.707031 -141.316406 244.375 -139.484375 C 242.050781 -137.660156 239.320312 -136.304688 236.1875 -135.421875 C 233.0625 -134.546875 229.78125 -134.109375 226.34375 -134.109375 C 222.4375 -134.109375 218.664062 -134.535156 215.03125 -135.390625 C 211.394531 -136.253906 207.882812 -137.367188 204.5 -138.734375 C 201.113281 -140.097656 197.863281 -141.578125 194.75 -143.171875 C 191.632812 -144.765625 188.644531 -146.3125 185.78125 -147.8125 C 182.988281 -149.28125 180.097656 -150.75 177.109375 -152.21875 C 174.117188 -153.6875 171.03125 -155.082031 167.84375 -156.40625 C 165.34375 -153.4375 163.546875 -150.597656 162.453125 -147.890625 C 161.359375 -145.191406 160.8125 -142.640625 160.8125 -140.234375 C 160.8125 -137.296875 161.523438 -134.609375 162.953125 -132.171875 C 164.390625 -129.742188 166.253906 -127.597656 168.546875 -125.734375 C 172.734375 -123.984375 176.546875 -121.875 179.984375 -119.40625 C 180.597656 -119.007812 181.035156 -118.601562 181.296875 -118.1875 C 181.566406 -117.78125 181.703125 -117.429688 181.703125 -117.140625 C 181.703125 -116.421875 181.179688 -116.0625 180.140625 -116.0625 C 179.535156 -116.0625 178.800781 -116.222656 177.9375 -116.546875 C 175.21875 -117.585938 172.453125 -118.769531 169.640625 -120.09375 C 166.835938 -121.414062 164.21875 -122.957031 161.78125 -124.71875 C 158.050781 -125.96875 154.15625 -126.890625 150.09375 -127.484375 C 146.03125 -128.078125 141.847656 -128.375 137.546875 -128.375 C 131.679688 -128.375 125.6875 -127.851562 119.5625 -126.8125 C 113.4375 -125.769531 107.3125 -124.289062 101.1875 -122.375 C 95.0625 -120.457031 89.0625 -118.15625 83.1875 -115.46875 C 77.320312 -112.789062 71.703125 -109.804688 66.328125 -106.515625 C 62.035156 -103.859375 57.820312 -100.875 53.6875 -97.5625 C 49.550781 -94.25 45.601562 -90.6875 41.84375 -86.875 C 38.082031 -83.0625 34.625 -79.0625 31.46875 -74.875 C 28.320312 -70.6875 25.582031 -66.378906 23.25 -61.953125 C 20.925781 -57.535156 19.117188 -53.0625 17.828125 -48.53125 C 16.546875 -44 15.90625 -39.492188 15.90625 -35.015625 C 15.90625 -32.648438 16.097656 -30.304688 16.484375 -27.984375 C 16.878906 -25.660156 17.488281 -23.367188 18.3125 -21.109375 C 20 -16.492188 22.378906 -12.597656 25.453125 -9.421875 C 28.535156 -6.253906 32.132812 -3.722656 36.25 -1.828125 C 40.375 0.0664062 44.859375 1.441406 49.703125 2.296875 C 54.554688 3.160156 59.5625 3.59375 64.71875 3.59375 C 70.945312 3.59375 77.238281 3.082031 83.59375 2.0625 C 89.957031 1.039062 95.945312 -0.269531 101.5625 -1.875 C 106.21875 -3.207031 110.460938 -4.515625 114.296875 -5.796875 C 118.128906 -7.085938 121.691406 -8.394531 124.984375 -9.71875 C 128.273438 -11.039062 131.453125 -12.410156 134.515625 -13.828125 C 137.578125 -15.242188 140.65625 -16.726562 143.75 -18.28125 C 146.851562 -19.84375 150.101562 -21.519531 153.5 -23.3125 C 156.90625 -25.101562 160.597656 -27.019531 164.578125 -29.0625 C 171.765625 -32.78125 178.804688 -35.585938 185.703125 -37.484375 C 192.597656 -39.390625 199.175781 -40.34375 205.4375 -40.34375 C 210.457031 -40.34375 215.226562 -39.722656 219.75 -38.484375 C 224.28125 -37.242188 228.535156 -35.335938 232.515625 -32.765625 C 233.117188 -32.367188 233.421875 -32.007812 233.421875 -31.6875 C 233.421875 -31.476562 233.296875 -31.316406 233.046875 -31.203125 C 232.796875 -31.097656 232.492188 -31.046875 232.140625 -31.046875 C 231.640625 -31.046875 231.175781 -31.15625 230.75 -31.375 C 227.125 -33.59375 223.195312 -35.242188 218.96875 -36.328125 C 214.75 -37.421875 210.296875 -37.96875 205.609375 -37.96875 C 199.878906 -37.96875 193.890625 -37.132812 187.640625 -35.46875 C 181.390625 -33.8125 175.003906 -31.316406 168.484375 -27.984375 C 164.296875 -25.835938 159.695312 -23.484375 154.6875 -20.921875 C 149.675781 -18.359375 144.332031 -15.75 138.65625 -13.09375 C 132.976562 -10.445312 127.050781 -7.914062 120.875 -5.5 C 114.695312 -3.082031 108.320312 -0.914062 101.75 1 C 95.1875 2.914062 88.519531 4.4375 81.75 5.5625 C 74.976562 6.6875 68.15625 7.25 61.28125 7.25 Z M 223.875 -136.109375 C 225.90625 -136.109375 227.941406 -136.320312 229.984375 -136.75 C 232.023438 -137.175781 234.03125 -137.875 236 -138.84375 C 239.40625 -140.53125 241.90625 -142.660156 243.5 -145.234375 C 245.09375 -147.816406 245.890625 -150.429688 245.890625 -153.078125 C 245.890625 -156.160156 244.957031 -158.953125 243.09375 -161.453125 C 241.550781 -163.535156 239.523438 -165.351562 237.015625 -166.90625 C 234.515625 -168.46875 231.734375 -169.765625 228.671875 -170.796875 C 225.609375 -171.835938 222.492188 -172.617188 219.328125 -173.140625 C 216.160156 -173.660156 213.144531 -173.921875 210.28125 -173.921875 L 208.078125 -173.859375 C 204.890625 -173.710938 201.550781 -173.265625 198.0625 -172.515625 C 194.570312 -171.765625 191.109375 -170.742188 187.671875 -169.453125 C 184.234375 -168.171875 180.984375 -166.625 177.921875 -164.8125 C 174.859375 -163 172.160156 -160.929688 169.828125 -158.609375 C 172.515625 -157.390625 175.164062 -156.132812 177.78125 -154.84375 C 180.394531 -153.5625 182.972656 -152.253906 185.515625 -150.921875 C 187.453125 -149.921875 189.554688 -148.773438 191.828125 -147.484375 C 194.097656 -146.203125 196.503906 -144.894531 199.046875 -143.5625 C 201.585938 -142.238281 204.226562 -141.015625 206.96875 -139.890625 C 209.707031 -138.765625 212.492188 -137.851562 215.328125 -137.15625 C 218.160156 -136.457031 221.007812 -136.109375 223.875 -136.109375 Z M 223.875 -136.109375 "/></g></g></g></g></g></svg>